<?xml version="1.0" encoding="UTF-8"?>
<svg version="1.1" xmlns="http://www.w3.org/2000/svg" width="2000" height="1990">
<path d="M0 0 C1.70743331 -0.00323399 3.41486638 -0.00659942 5.12229919 -0.01008606 C8.67943968 -0.01601398 12.23655612 -0.0179329 15.79370117 -0.01733398 C19.36015969 -0.01725332 22.9264881 -0.02411084 26.49291992 -0.0378418 C56.48578397 -0.15138081 86.27065396 0.80673901 116.12109375 3.91796875 C116.92951721 4.00067017 117.73794067 4.08337158 118.57086182 4.1685791 C200.69636002 12.6328493 281.93699985 31.41141008 485.03271484 120.66650391 C487.6818235 122.20319682 490.34574089 123.7106619 493.015625 125.2109375 C529.94540573 145.98960195 565.11818436 170.26777508 598.62109375 196.16796875 C599.62100342 196.93971436 599.62100342 196.93971436 600.64111328 197.72705078 C619.05096894 211.9660388 636.88662918 226.93485139 653.97265625 242.73828125 C656.26202772 244.8385601 658.58070993 246.88962063 660.93359375 248.91796875 C664.02548684 251.59548441 666.90252232 254.4253299 669.76513672 257.34448242 C671.47236809 259.0218451 673.2267202 260.56617523 675.0546875 262.109375 C680.45316453 266.80494474 685.47427411 271.87138669 690.52124023 276.93774414 C692.18036695 278.60223152 693.84477426 280.26130322 695.50976562 281.91992188 C700.57268782 286.9800086 705.56402414 292.04377652 710.18530273 297.51782227 C711.7543188 299.32108354 713.41480103 300.99473312 715.12109375 302.66796875 C718.157043 305.65669212 720.96618034 308.78503354 723.74609375 312.01171875 C725.79468469 314.36759833 727.89312377 316.67304335 729.99609375 318.98046875 C733.87460102 323.27756702 737.54975343 327.70555629 741.1875 332.20703125 C743.3726257 334.86565931 745.60509125 337.46845265 747.86547852 340.0625 C753.96867859 347.07717198 759.66988345 354.3331267 765.26953125 361.75390625 C767.51251342 364.72391494 769.78794609 367.66362025 772.09765625 370.58203125 C779.28555162 379.6716076 786.03742068 388.94295628 792.48828125 398.5703125 C794.76720568 401.95825198 797.13743518 405.26407711 799.5546875 408.5546875 C803.49105795 413.93654633 807.18543387 419.44668989 810.80859375 425.04296875 C811.45441406 426.0383667 812.10023437 427.03376465 812.765625 428.05932617 C861.65519939 503.6763995 900.57264692 585.66307991 947.62109375 760.16796875 C947.76053406 760.85596558 947.89997437 761.5439624 948.04364014 762.25280762 C954.79940094 795.74226627 959.11964215 829.63202732 961.93359375 863.66796875 C962.0149054 864.64959991 962.09621704 865.63123108 962.17999268 866.64260864 C962.7107766 873.14782797 963.19122832 879.65530468 963.62109375 886.16796875 C963.70221405 887.39451675 963.70221405 887.39451675 963.78497314 888.64584351 C964.87566482 905.90483195 964.86651849 923.19406891 964.87109375 940.48046875 C964.87153561 941.24823009 964.87197746 942.01599144 964.87243271 942.80701828 C964.88071255 970.35179925 964.13024426 997.72213181 961.62109375 1025.16796875 C961.53623718 1026.10010193 961.45138062 1027.03223511 961.36395264 1027.99261475 C953.36230899 1114.70278744 933.68100064 1200.05287278 846.10693359 1400.55908203 C844.35538944 1403.63450116 842.66064661 1406.73810362 840.97119141 1409.84790039 C828.84637471 1432.08861308 814.86878816 1453.24663309 800.62109375 1474.16796875 C799.68136719 1475.54855469 799.68136719 1475.54855469 798.72265625 1476.95703125 C790.33051537 1489.23374389 781.47072927 1501.11526253 772.38232422 1512.88378906 C770.86185998 1514.85571357 769.34978154 1516.83345536 767.84375 1518.81640625 C758.01614525 1531.71812399 747.69953548 1544.20194486 737.08740234 1556.46337891 C735.63548997 1558.15123308 734.1985028 1559.85065833 732.765625 1561.5546875 C725.37414188 1570.32133027 717.59806367 1578.67602224 709.69433594 1586.98144531 C707.63146681 1589.15702891 705.5812639 1591.34380931 703.53515625 1593.53515625 C681.8428614 1616.75636585 681.8428614 1616.75636585 671.4765625 1625.53125 C669.25945791 1627.48696963 667.19733463 1629.56352765 665.12109375 1631.66796875 C661.78988568 1635.0389694 658.36997747 1638.21310905 654.7734375 1641.296875 C652.24057213 1643.49876704 649.77776853 1645.76992701 647.30859375 1648.04296875 C642.84235861 1652.11656784 638.25187996 1655.97624578 633.546875 1659.76953125 C630.89877936 1661.94033328 628.30962952 1664.16091498 625.72875977 1666.41015625 C618.71967753 1672.50964785 611.46793565 1678.20621449 604.0546875 1683.8046875 C600.24742578 1686.68062793 596.48476374 1689.60977146 592.73071289 1692.5546875 C585.18305945 1698.47152157 577.56306843 1704.22858478 569.69775391 1709.71582031 C567.26374991 1711.41784897 564.83937372 1713.13326465 562.4140625 1714.84765625 C549.38969355 1724.02036084 536.16390871 1732.78095818 522.62109375 1741.16796875 C521.01041016 1742.16763672 521.01041016 1742.16763672 519.3671875 1743.1875 C460.76241765 1779.49317401 398.73045172 1809.46631818 333.62109375 1832.16796875 C332.97992615 1832.39186279 332.33875854 1832.61575684 331.67816162 1832.84643555 C261.48944895 1857.31291962 188.63279504 1873.03129088 114.68359375 1880.41796875 C113.92258362 1880.49528229 113.16157349 1880.57259583 112.37750244 1880.6522522 C83.55754458 1883.53346281 54.67359134 1884.55573805 25.72396469 1884.48602676 C23.31960737 1884.48034713 20.91525722 1884.4775511 18.51089478 1884.47494507 C-8.21046852 1884.4329587 -34.75983318 1883.65019353 -61.37890625 1881.16796875 C-62.73885712 1881.04421875 -62.73885712 1881.04421875 -64.12628174 1880.91796875 C-106.55422636 1877.04352578 -148.72245809 1870.44370006 -190.20013428 1860.68041992 C-192.38466956 1860.16661321 -194.57042912 1859.65827642 -196.75634766 1859.15039062 C-279.95698485 1839.72110916 -362.29813614 1808.49195609 -441.69384766 1762.73925781 C-444.56244628 1761.06056162 -447.4441413 1759.40601891 -450.328125 1757.75390625 C-482.97650338 1738.98317751 -514.45614407 1718.03768214 -544.37890625 1695.16796875 C-544.94657715 1694.73532715 -545.51424805 1694.30268555 -546.09912109 1693.85693359 C-549.8730717 1690.97864662 -553.6297474 1688.0784703 -557.37890625 1685.16796875 C-557.94319336 1684.73129883 -558.50748047 1684.29462891 -559.08886719 1683.84472656 C-567.12810947 1677.61689191 -574.99187167 1671.2211709 -582.70947266 1664.59912109 C-584.45391259 1663.1036682 -586.20314881 1661.6139692 -587.953125 1660.125 C-594.85754245 1654.24152717 -601.66329394 1648.26695556 -608.37890625 1642.16796875 C-609.94135371 1640.7720766 -611.50385526 1639.376245 -613.06640625 1637.98046875 C-624.65454207 1627.52947532 -635.92766721 1616.78592508 -646.94335938 1605.73388672 C-648.90249281 1603.76931674 -650.86702269 1601.81025427 -652.83203125 1599.8515625 C-658.35226336 1594.33424498 -663.84583338 1588.84357195 -668.90136719 1582.890625 C-671.57307851 1579.77568861 -674.43147346 1576.83322846 -677.25390625 1573.85546875 C-682.17384398 1568.62848215 -686.83265307 1563.30934013 -691.3125 1557.69921875 C-693.38003407 1555.16658722 -695.54003966 1552.76065715 -697.75390625 1550.35546875 C-701.73574212 1545.98096049 -705.39632708 1541.422678 -709.01782227 1536.75146484 C-711.97943169 1532.93473207 -714.99862583 1529.17565623 -718.0715332 1525.44799805 C-725.88460767 1515.9580859 -733.1884422 1506.13515994 -740.37890625 1496.16796875 C-741.10231201 1495.17071777 -741.10231201 1495.17071777 -741.84033203 1494.15332031 C-767.62479695 1458.53279499 -790.72662506 1420.97374789 -811.37890625 1382.16796875 C-811.92514648 1381.14396973 -812.47138672 1380.1199707 -813.03417969 1379.06494141 C-834.54544238 1338.58867215 -852.67090506 1296.60796561 -867.6418457 1253.29516602 C-868.35983211 1251.22301776 -869.08418331 1249.15320914 -869.81054688 1247.08398438 C-897.36248378 1168.43391986 -912.93281362 1085.67122426 -822.84326172 523.96679688 C-816.08735977 510.01941219 -808.75685913 496.47168891 -801.02441406 483.04443359 C-799.3595631 480.13415555 -797.72095233 477.21055819 -796.08984375 474.28125 C-778.68802604 443.05560695 -758.7974138 412.79270314 -737.37890625 384.16796875 C-736.2496875 382.6365625 -736.2496875 382.6365625 -735.09765625 381.07421875 C-718.02648359 358.06524691 -699.9656646 335.71396126 -680.59375 314.59765625 C-678.73883808 312.5628146 -676.92461827 310.50475628 -675.12890625 308.41796875 C-664.40946324 296.12914539 -652.92244991 284.55011043 -641.38134766 273.04003906 C-638.98221895 270.64633044 -636.58856355 268.24723994 -634.1953125 265.84765625 C-632.6448522 264.29785593 -631.09408216 262.7483654 -629.54296875 261.19921875 C-628.84072174 260.49494751 -628.13847473 259.79067627 -627.41494751 259.06506348 C-623.45409982 255.12271365 -619.39676843 251.35174149 -615.15812683 247.70907593 C-612.39071633 245.31202846 -609.73616274 242.79747266 -607.06640625 240.29296875 C-602.19784875 235.75895181 -597.18558461 231.48304094 -591.99609375 227.31640625 C-589.36049012 225.15285103 -586.8346725 222.90407315 -584.31640625 220.60546875 C-579.503997 216.23123805 -574.4969075 212.17719211 -569.37890625 208.16796875 C-568.38761719 207.38164062 -567.39632813 206.5953125 -566.375 205.78515625 C-519.08847273 168.31726006 -468.68818221 135.42644414 -415.37890625 107.16796875 C-414.27482422 106.57902832 -413.17074219 105.99008789 -412.03320312 105.38330078 C-369.54280496 82.77345535 -325.11770695 64.20138205 -279.50537109 48.88287354 C-277.45289453 48.19284317 -275.40206592 47.49811459 -273.3515625 46.80224609 C-252.27278571 39.66804039 -230.93444804 33.67107272 -209.37890625 28.16796875 C-208.61126953 27.97160828 -207.84363281 27.7752478 -207.05273438 27.57293701 C-154.74502111 14.23762053 -101.52017969 6.28477618 -47.75 1.9296875 C-46.98166336 1.86643784 -46.21332672 1.80318817 -45.42170715 1.73802185 C-30.28715576 0.55518425 -15.17771713 0.00698372 0 0 Z " fill="#010101" transform="translate(977.37890625,49.83203125)"/>
<path d="M0 0 C22.79989341 -0.02332654 45.59978486 -0.04097797 68.39968777 -0.05181217 C78.98529394 -0.05697565 89.57089272 -0.06401933 100.15649414 -0.07543945 C109.37937759 -0.08538471 118.60225569 -0.09185305 127.82514435 -0.09408849 C132.71176412 -0.09539587 137.59836857 -0.09848342 142.48498344 -0.10573006 C147.07887461 -0.11248778 151.67274405 -0.11461747 156.26663971 -0.11310768 C157.95779348 -0.11338412 159.64894794 -0.11539071 161.34009743 -0.11920547 C163.63878176 -0.12413887 165.9373827 -0.12299962 168.23606873 -0.12025452 C170.1704513 -0.12163721 170.1704513 -0.12163721 172.14391232 -0.12304783 C175 0 175 0 176 1 C178.19264335 1.08589055 180.38813408 1.09894128 182.58241844 1.08559227 C183.28193178 1.08274215 183.98144512 1.07989204 184.70215583 1.07695556 C187.07593069 1.06612123 189.4496014 1.0481367 191.82333374 1.03036499 C193.53069494 1.02133663 195.23805878 1.01279619 196.94542468 1.00470507 C200.67331937 0.98618081 204.40118056 0.96464016 208.12904549 0.9408741 C214.19408448 0.90241676 220.25914654 0.87103691 226.32423401 0.84132385 C227.36640926 0.83621765 228.40858451 0.83111144 229.48234083 0.8258505 C231.62859346 0.8153706 233.77484626 0.80492494 235.92109922 0.7945123 C239.25219916 0.77817644 242.58329566 0.76123499 245.91439223 0.74422622 C262.12800089 0.6626987 278.34155647 0.61013684 294.55532837 0.57485962 C295.72714654 0.5722808 296.89896472 0.56970198 298.10629253 0.56704502 C308.99457417 0.54335749 319.88285942 0.52179898 330.7711494 0.50232005 C338.2452216 0.48890813 345.71929119 0.47447566 353.19335938 0.45898438 C354.43489634 0.45642559 355.6764333 0.45386681 356.95559259 0.45123048 C377.03782988 0.4079159 397.11924938 0.3004668 417.20108752 0.17003779 C437.8228925 0.03764397 458.444014 -0.02217438 479.06624663 -0.01604402 C491.78190504 -0.0146008 504.49471748 -0.06964174 517.20973946 -0.19796394 C525.93887535 -0.28069578 534.66637148 -0.29293508 543.39578997 -0.25084318 C548.42676798 -0.2286561 553.45271602 -0.23658194 558.48300743 -0.32882118 C591.55020567 -0.90035785 591.55020567 -0.90035785 602.40430623 7.99779874 C610.13728738 15.71783456 614.45203112 23.89354232 614.54171753 34.86312866 C614.50002223 36.50670251 614.45634866 38.15022714 614.41088867 39.79370117 C614.43179966 41.58343721 614.46081687 43.37309356 614.49717712 45.1625824 C614.57011693 49.96268372 614.52562367 54.75468835 614.45338988 59.55453277 C614.39346148 64.61061627 614.43003465 69.66621911 614.45149231 74.7224884 C614.47223901 83.20551987 614.41560623 91.68535531 614.31225586 100.16772461 C614.19423022 109.93600653 614.20149524 119.69817245 614.27520579 129.46675128 C614.34343321 138.91869319 614.32062522 148.3683972 614.25786781 157.82030678 C614.23297603 161.81854773 614.23948932 165.8148388 614.27242088 169.81300926 C614.50318162 204.19309591 614.50318162 204.19309591 606.315732 213.35781574 C603.08705674 216.32452497 599.72853289 218.71561963 596 221 C595.42202791 221.51123712 594.84405582 222.02247424 594.24856943 222.5492034 C591.36478506 224.40984622 589.55423517 224.3728758 586.1354332 224.36914349 C584.92918092 224.37511663 583.72292865 224.38108978 582.48012328 224.38724393 C581.13988432 224.37868486 579.79964712 224.36984807 578.45941162 224.36076355 C577.03702632 224.36207146 575.61464172 224.36469762 574.19226098 224.36853105 C570.27906473 224.37525084 566.36611401 224.36322295 562.45294905 224.34819686 C558.2348477 224.33526222 554.01676061 224.33962414 549.79864502 224.34190369 C542.48895731 224.34347805 535.17934984 224.33405181 527.86968231 224.31719017 C517.30109478 224.29282683 506.73254611 224.28499763 496.16393355 224.2812262 C479.01779567 224.27465752 461.87170058 224.25468508 444.72558594 224.22631836 C428.068036 224.19878855 411.41049773 224.17758409 394.75292969 224.16479492 C393.19750611 224.16358893 393.19750611 224.16358893 391.61065984 224.16235858 C383.50124443 224.15612045 375.39182877 224.15024963 367.28241301 224.14449489 C327.52156941 224.11618504 287.76083287 224.05583225 248 224 C248 284.72 248 345.44 248 408 C270.94660156 407.91878906 293.89320313 407.83757812 317.53515625 407.75390625 C332.0410193 407.7181548 346.54685537 407.68412637 361.05273438 407.65820312 C368.67081812 407.64449783 376.28890086 407.63035441 383.90698242 407.61547852 C384.86179644 407.61363227 385.81661046 407.61178603 386.80035824 407.60988384 C402.21895431 407.57943132 417.6373678 407.52424072 433.05585558 407.45993043 C448.87718161 407.39448985 464.69841201 407.3555928 480.51986784 407.34138054 C490.28414687 407.33177142 500.0479101 407.30141327 509.81203037 407.24458473 C516.50596225 407.20760764 523.19962714 407.19639363 529.89365376 407.20549036 C533.7570582 407.20997799 537.61956082 407.20305824 541.48280525 407.16556168 C545.67170935 407.12520116 549.85869066 407.13907276 554.04774475 407.15821838 C555.26856737 407.13782849 556.48938998 407.1174386 557.74720722 407.09643084 C563.42502725 407.16676312 567.02196201 407.3088942 571.16840267 411.42516994 C572.1317248 412.60110682 573.07848299 413.79102381 574 415 C575.35848705 416.22686893 576.72984553 417.43999432 578.125 418.625 C579.42972535 419.73482861 580.72059307 420.86107697 582 422 C582.85105064 422.70852301 583.70210129 423.41704601 584.57894135 424.14703941 C587.51539408 427.6073372 587.73930634 430.07607546 587.72912598 434.42080688 C587.74680385 435.15896334 587.76448173 435.8971198 587.78269529 436.65764463 C587.83534555 439.12694364 587.85237979 441.59515708 587.86914062 444.06494141 C587.89884429 445.83781598 587.9304578 447.61065944 587.96383667 449.38346863 C588.04649706 454.20031801 588.09523198 459.01689914 588.13266945 463.83429384 C588.15624451 466.85086048 588.18465243 469.86734813 588.21421814 472.88386154 C588.3041129 482.34144014 588.37067512 491.79881887 588.40786791 501.25675166 C588.45132197 512.13743133 588.57377233 523.01341872 588.76487207 533.89248335 C588.90780171 542.32258218 588.97650587 550.75135198 588.99103308 559.18263948 C589.00142414 564.20819855 589.04225993 569.22885079 589.16169739 574.25310135 C589.27253172 578.99477253 589.28994276 583.72833581 589.24051285 588.4709568 C589.23779277 590.19513553 589.26662846 591.9197531 589.33219528 593.64268684 C589.72949248 604.72250272 586.82265133 612.23341784 579.3367157 620.54496765 C569.30782491 630.37964087 558.73859459 631.47464023 545.26493835 631.36398315 C543.06181532 631.31970752 540.85923833 631.26388317 538.65645349 631.20524681 C534.7311036 631.12216117 530.80623245 631.15103225 526.88024902 631.16539001 C520.09978139 631.17529018 513.32282249 631.11636635 506.54323769 631.00887108 C496.74209158 630.85356904 486.94261892 630.80488659 477.14037599 630.78109924 C461.23284337 630.7396508 445.32717586 630.61358528 429.4206543 630.43334961 C413.98129371 630.25859068 398.54244469 630.12449722 383.10229492 630.04370117 C382.1387684 630.03860922 381.17524188 630.03351727 380.18251759 630.02827102 C372.64561376 629.98875533 365.10869886 629.9515761 357.57177961 629.91513431 C320.71280711 629.73632067 283.85851082 629.35399075 247 629 C247 692.03 247 755.06 247 820 C286.73341797 819.66935547 286.73341797 819.66935547 327.26953125 819.33203125 C344.04494547 819.23495687 360.82018701 819.1425902 377.59570312 819.07226562 C386.40959339 819.03506905 395.22347724 818.99668074 404.03735352 818.95629883 C405.14194823 818.9512876 406.24654295 818.94627638 407.38461024 818.94111329 C425.19106139 818.85859478 442.99634046 818.70887138 460.80209783 818.53409687 C479.09136713 818.35608081 497.38002515 818.25081326 515.67012519 818.2123186 C526.94649421 818.1863152 538.21955148 818.1043649 549.49490025 817.94958713 C557.23906236 817.84873214 564.98152626 817.81888938 572.72629658 817.84347383 C577.18852901 817.8555845 581.64500086 817.83776062 586.10619354 817.73509598 C615.36860295 817.09667328 615.36860295 817.09667328 626.11350918 825.99901032 C633.94689394 833.76157359 638.44646697 841.68120518 638.56393433 852.77745056 C638.52542623 854.40840237 638.48492604 856.03930813 638.44262695 857.67016602 C638.46682563 859.44681949 638.49908741 861.22337811 638.53865051 862.99975586 C638.62003012 867.76475708 638.58380865 872.52175062 638.51925302 877.28674054 C638.46683417 882.30858554 638.50924025 887.32986436 638.53617859 892.35179138 C638.56603505 900.77931222 638.51717844 909.2036402 638.42211914 917.63061523 C638.31384834 927.32885115 638.33861017 937.01999064 638.43290359 946.71821266 C638.52041519 956.10722347 638.50546374 965.49358674 638.4476223 974.8827343 C638.42534162 978.85169888 638.43919896 982.81798569 638.483881 986.78674507 C638.81194227 1020.87666531 638.81194227 1020.87666531 629.48885632 1031.16992855 C618.77677038 1041.12473699 618.77677038 1041.12473699 611.75805944 1041.12534916 C610.41217353 1041.12910444 610.41217353 1041.12910444 609.03909799 1041.13293558 C607.54814699 1041.12942383 607.54814699 1041.12942383 606.02707577 1041.12584114 C604.44627842 1041.1280213 604.44627842 1041.1280213 602.83354577 1041.13024551 C599.26059337 1041.13392903 595.68768301 1041.13040825 592.11473083 1041.12698364 C589.54396656 1041.12813453 586.97320246 1041.12972184 584.4024387 1041.13171089 C578.79167796 1041.13533321 573.18092683 1041.1352065 567.57016563 1041.13266373 C559.2270418 1041.12889286 550.88392613 1041.13080891 542.54080236 1041.13387203 C527.64327768 1041.13914764 512.74575728 1041.13867748 497.84823219 1041.13579312 C484.8120856 1041.13328142 471.77594057 1041.13261906 458.73979378 1041.13381577 C457.44467662 1041.13393034 457.44467662 1041.13393034 456.12339548 1041.13404724 C452.61888117 1041.13435855 449.11436687 1041.13467695 445.60985257 1041.135007 C412.7098224 1041.13806858 379.80979497 1041.1352884 346.90976522 1041.1299101 C317.65313954 1041.12516379 288.39651822 1041.12558918 259.13989258 1041.13037109 C226.30002067 1041.13572068 193.46015118 1041.13785191 160.62027889 1041.13475883 C157.12231608 1041.13443809 153.62435327 1041.13412525 150.12639046 1041.13381577 C149.26504813 1041.13373669 148.40370581 1041.13365761 147.5162622 1041.13357614 C134.48472729 1041.13243662 121.45319413 1041.13377273 108.42165947 1041.13629532 C93.61133614 1041.13914788 78.80101776 1041.13845409 63.99069505 1041.13301457 C55.69252456 1041.13006773 47.39436479 1041.12990175 39.09619457 1041.13366075 C32.91731283 1041.13615207 26.73844392 1041.1334706 20.55956376 1041.12868617 C18.04683653 1041.12756076 15.53410788 1041.12815587 13.02138155 1041.13056196 C9.62992755 1041.13356263 6.23853383 1041.13052493 2.84708309 1041.12584114 C1.85077459 1041.12818231 0.85446609 1041.13052347 -0.17203358 1041.13293558 C-1.06678734 1041.13043207 -1.9615411 1041.12792855 -2.88340861 1041.12534916 C-3.66021258 1041.1252814 -4.43701655 1041.12521365 -5.23736003 1041.12514383 C-7 1041 -7 1041 -8 1040 C-10.55419302 1039.88984571 -13.08192936 1039.84503796 -15.63710022 1039.84178162 C-16.44649801 1039.83684364 -17.2558958 1039.83190566 -18.0898208 1039.82681805 C-20.82298056 1039.81136532 -23.5561167 1039.80306152 -26.28930664 1039.79467773 C-28.2401704 1039.78510531 -30.19103205 1039.77509561 -32.14189148 1039.76467896 C-37.45569899 1039.73755492 -42.76951545 1039.71658609 -48.08335423 1039.69667697 C-53.63008473 1039.6748635 -59.1767874 1039.6474522 -64.72349548 1039.62062073 C-75.23490608 1039.5706309 -85.74633207 1039.52571549 -96.25777286 1039.48259836 C-108.2213111 1039.43327962 -120.18482144 1039.37834167 -132.14833272 1039.32291877 C-156.76552913 1039.20900221 -181.38275229 1039.10218435 -206 1039 C-207.3502592 1032.00899229 -208.69864791 1025.0176255 -210.04586792 1018.02603149 C-210.50228718 1015.65848037 -210.9591008 1013.29100522 -211.41635132 1010.9236145 C-214.40982783 995.42325413 -217.32871485 979.91216101 -220.125 964.375 C-220.46843775 962.46952559 -220.81191828 960.56405889 -221.15544128 958.65859985 C-221.30844287 957.80941294 -221.46144445 956.96022602 -221.61908245 956.08530617 C-223.64899494 944.83356518 -225.77800778 933.60250079 -227.9375 922.375 C-231.1376265 905.73647444 -234.16267443 889.07006114 -237.13986206 872.39031982 C-239.48953746 859.23847559 -241.90811951 846.10625606 -244.5 833 C-247.21080184 819.2759999 -249.77065006 805.52678949 -252.26196289 791.76123047 C-252.6663959 789.52726556 -253.07212949 787.29353565 -253.47924805 785.06005859 C-254.05026718 781.92359462 -254.6158038 778.78619123 -255.1796875 775.6484375 C-255.34914886 774.72074554 -255.51861023 773.79305359 -255.69320679 772.83724976 C-255.92990585 771.50894638 -255.92990585 771.50894638 -256.17138672 770.15380859 C-256.30793671 769.39635345 -256.44448669 768.63889832 -256.58517456 767.85848999 C-257.20445156 763.59115984 -257.57093689 759.29063113 -258 755 C-156.69 755 -55.38 755 49 755 C48.3636395 761.36360502 47.66523873 767.42235377 46.43359375 773.65234375 C46.27935944 774.45267532 46.12512512 775.2530069 45.96621704 776.07759094 C45.63402665 777.79912775 45.2998673 779.52028561 44.96389771 781.24108887 C44.04778862 785.9337513 43.14612592 790.62919961 42.2421875 795.32421875 C41.9614312 796.7791423 41.9614312 796.7791423 41.67500305 798.26345825 C39.9208321 807.36900994 38.2318079 816.48610927 36.550354 825.60531616 C33.655373 841.29917006 30.6524046 856.96839403 27.5625 872.625 C23.95027928 890.9317346 20.49883349 909.26436533 17.18188477 927.62695312 C15.36015203 937.69818081 13.49476171 947.74714175 11.3581543 957.75683594 C7.88302417 975.44589089 7.60861785 989.13284675 7 1008 C203.68 1008 400.36 1008 603 1008 C603 956.85 603 905.7 603 853 C577.47527344 853.04640625 551.95054687 853.0928125 525.65234375 853.140625 C509.49674371 853.16105939 493.3411516 853.18050486 477.18554688 853.1953125 C468.69848602 853.20314359 460.21142545 853.2112254 451.72436523 853.21972656 C450.66070061 853.22078156 449.59703599 853.22183655 448.5011391 853.22292352 C431.3455864 853.24030456 414.19008752 853.27183089 397.03456669 853.30861118 C379.41873431 853.34606242 361.80293003 853.36824469 344.18705946 853.37635398 C333.32356336 853.38183307 322.46021933 853.39911701 311.59677006 853.43166587 C304.13985493 853.4528654 296.68301803 853.45918776 289.22607499 853.45400551 C284.92852204 853.45145218 280.63123419 853.45527155 276.33372879 853.4768219 C272.38955291 853.49645472 268.44581747 853.49716315 264.50162024 853.48359558 C263.08412633 853.48192166 261.6666036 853.48685347 260.24916541 853.49953273 C247.80590516 853.6042547 234.48561864 852.45408387 224.796875 843.83984375 C214.00219685 832.78703199 214.56014101 819.32936746 214.61181641 804.76586914 C214.60774537 802.83299972 214.60240052 800.90013263 214.59588623 798.9672699 C214.58226918 793.74408303 214.58748829 788.52107496 214.59702349 783.29788518 C214.60465033 777.8155644 214.597566 772.33325831 214.59286499 766.85093689 C214.58741577 757.64546986 214.59457669 748.44007517 214.60888672 739.23461914 C214.62520673 728.61397724 214.61992602 717.9935082 214.6034075 707.3728705 C214.58976307 698.23196982 214.58788756 689.09112096 214.59572351 679.95021337 C214.60038441 674.50055864 214.60106871 669.05098495 214.59111404 663.60133553 C214.58240372 658.47532561 214.58854018 653.34953699 214.60579681 648.2235508 C214.60974023 646.34995642 214.60866471 644.4763432 214.60200882 642.6027565 C214.51870371 616.75617244 214.51870371 616.75617244 222.98828125 606.97265625 C232.9085434 597.24502055 243.60124234 596.69331796 256.97134399 596.75949097 C258.24578947 596.75778212 259.52023495 596.75607327 260.83329999 596.75431263 C264.34524072 596.74986922 267.85705801 596.75780103 271.36898303 596.76786876 C275.16570686 596.77654464 278.96242431 596.77358018 282.75915527 596.77206421 C289.32879903 596.77101797 295.89840292 596.77726726 302.46803665 596.78853989 C311.96649678 596.80482734 321.46493772 596.81000621 330.9634103 596.81251587 C346.37584565 596.81688789 361.78825977 596.83018358 377.20068359 596.84912109 C392.16813045 596.86749267 407.1355715 596.88161998 422.10302734 596.89013672 C423.50214629 596.89094071 423.50214629 596.89094071 424.92953026 596.89176095 C432.22473993 596.89592004 439.51994972 596.8998338 446.81515956 596.90367007 C482.54345919 596.92252096 518.27170566 596.96276148 554 597 C554 545.52 554 494.04 554 441 C520.74992187 441.05220703 520.74992187 441.05220703 486.828125 441.10546875 C472.80078055 441.12079393 458.77344124 441.13537795 444.74609375 441.14648438 C437.3774412 441.15235775 430.00878885 441.15841913 422.64013672 441.16479492 C421.25487783 441.16598179 421.25487783 441.16598179 419.84163392 441.16719264 C404.94372495 441.18023091 390.04585081 441.20387704 375.14796248 441.23145839 C359.85205885 441.25953985 344.55617343 441.27618206 329.26024508 441.28226548 C319.82628927 441.28637624 310.39243188 441.29934707 300.95850638 441.3237494 C294.48417706 441.33964044 288.00989843 441.34439275 281.53555104 441.34050413 C277.80345589 441.33858782 274.07153242 441.34146909 270.339468 441.35761642 C266.28416406 441.37503322 262.22922224 441.36893521 258.17388916 441.36076355 C257.00654023 441.36950207 255.83919131 441.3782406 254.63646817 441.38724393 C241.89847634 441.31809141 232.19725625 439.0789092 223 430 C213.53764508 420.15096231 214.56506005 406.10436106 214.61181641 393.40844727 C214.60774499 391.54454237 214.60239993 389.6806399 214.59588623 387.81674194 C214.58227366 382.78156339 214.58748641 377.74657039 214.59702349 372.71138883 C214.60465272 367.4252584 214.59756534 362.13914318 214.59286499 356.85301208 C214.58741644 347.97709317 214.59457489 339.1012493 214.60888672 330.2253418 C214.62520643 319.98641872 214.61992598 309.74767495 214.6034075 299.50875622 C214.58976093 290.69481618 214.5878886 281.88092989 214.59572351 273.06698269 C214.60038326 267.81294662 214.60107192 262.55899462 214.59111404 257.30496407 C214.58240057 252.36280493 214.58854581 247.42087524 214.60579681 242.47874069 C214.60973858 240.67287386 214.60866759 238.86698747 214.60200882 237.06112862 C214.5554806 223.15238273 214.66564725 210.50103586 225 200 C234.34549284 190.81563634 246.67144657 190.55319649 259.12298584 190.63923645 C260.51102762 190.63792526 261.89906867 190.63529311 263.2871058 190.63146895 C267.06821639 190.62481342 270.84906834 190.63668783 274.63014603 190.65180314 C278.71995228 190.66483117 282.80974546 190.66036928 286.89956665 190.65809631 C293.97447886 190.65652783 301.04930768 190.6658924 308.12419891 190.68280983 C318.35312764 190.70725317 328.58201629 190.71501055 338.81097105 190.7187738 C355.40915977 190.72532994 372.00730411 190.74526831 388.60546875 190.77368164 C404.72330508 190.80124394 420.84112926 190.82243246 436.95898438 190.83520508 C437.96361442 190.83600907 438.96824446 190.83681306 440.00331783 190.83764142 C447.86088477 190.84388016 455.71845198 190.84975077 463.57601929 190.85550511 C502.05072027 190.88377549 540.52531007 190.94413763 579 191 C579 139.52 579 88.04 579 35 C449.31 35 319.62 35 186 35 C185.67 38.3 185.34 41.6 185 45 C184.65055754 47.22017679 184.27068152 49.4359128 183.85180664 51.64404297 C183.62350159 52.8588887 183.39519653 54.07373444 183.15997314 55.32539368 C182.78881378 57.26420662 182.78881378 57.26420662 182.41015625 59.2421875 C182.14724629 60.63198715 181.88470267 62.02185614 181.62249756 63.41178894 C180.92013025 67.1288706 180.21238747 70.84490939 179.50348282 74.56074905 C178.91010283 77.67477105 178.31991147 80.78939377 177.72976971 83.9040308 C175.82863834 93.93770073 173.9167728 103.96930747 172 114 C171.75580322 115.27792419 171.51160645 116.55584839 171.26000977 117.87249756 C168.19185615 133.91857273 165.09883885 149.95982723 162 166 C160.28975772 174.85379911 158.58117864 183.70791687 156.875 192.5625 C156.66758179 193.638414 156.46016357 194.714328 156.24645996 195.82284546 C152.95426534 212.91026528 149.7371675 230.01078281 146.59912109 247.12719727 C146.44546585 247.96123581 146.29181061 248.79527435 146.13349915 249.65458679 C145.85538576 251.16445075 145.57878736 252.67459534 145.30436707 254.18513489 C144.01695985 261.16254288 142.48905923 268.05105692 141 275 C80.94 275 20.88 275 -41 275 C-39.25685957 261.05487653 -37.44434282 247.27595903 -35.171875 233.43359375 C-33.35462221 222.12039811 -31.79533757 210.76771875 -30.1940918 199.42236328 C-27.622163 181.21001333 -24.86087186 163.03080584 -22.01065063 144.8600769 C-19.20035526 126.92490001 -16.50372544 108.98080875 -14 91 C-11.98392356 76.54774494 -9.90168499 62.12548694 -7.43188477 47.74316406 C-6.11604387 39.97417949 -5.04865886 32.18740883 -4.12670898 24.36206055 C-3.44220802 18.74158793 -2.50943132 13.20012916 -1.44946289 7.640625 C-1.24030621 6.53485107 -1.24030621 6.53485107 -1.02692413 5.40673828 C-0.68581094 3.60426566 -0.34307188 1.80210085 0 0 Z " fill="#FDFDFD" transform="translate(1081,516)"/>
<path d="M0 0 C1.70743331 -0.00323399 3.41486638 -0.00659942 5.12229919 -0.01008606 C8.67943968 -0.01601398 12.23655612 -0.0179329 15.79370117 -0.01733398 C19.36015969 -0.01725332 22.9264881 -0.02411084 26.49291992 -0.0378418 C56.48578397 -0.15138081 86.27065396 0.80673901 116.12109375 3.91796875 C116.92951721 4.00067017 117.73794067 4.08337158 118.57086182 4.1685791 C200.69636002 12.6328493 281.93699985 31.41141008 485.03271484 120.66650391 C487.6818235 122.20319682 490.34574089 123.7106619 493.015625 125.2109375 C529.94540573 145.98960195 565.11818436 170.26777508 598.62109375 196.16796875 C599.62100342 196.93971436 599.62100342 196.93971436 600.64111328 197.72705078 C619.05096894 211.9660388 636.88662918 226.93485139 653.97265625 242.73828125 C656.26202772 244.8385601 658.58070993 246.88962063 660.93359375 248.91796875 C664.02548684 251.59548441 666.90252232 254.4253299 669.76513672 257.34448242 C671.47236809 259.0218451 673.2267202 260.56617523 675.0546875 262.109375 C680.45316453 266.80494474 685.47427411 271.87138669 690.52124023 276.93774414 C692.18036695 278.60223152 693.84477426 280.26130322 695.50976562 281.91992188 C700.57268782 286.9800086 705.56402414 292.04377652 710.18530273 297.51782227 C711.7543188 299.32108354 713.41480103 300.99473312 715.12109375 302.66796875 C718.157043 305.65669212 720.96618034 308.78503354 723.74609375 312.01171875 C725.79468469 314.36759833 727.89312377 316.67304335 729.99609375 318.98046875 C733.87460102 323.27756702 737.54975343 327.70555629 741.1875 332.20703125 C743.3726257 334.86565931 745.60509125 337.46845265 747.86547852 340.0625 C753.96867859 347.07717198 759.66988345 354.3331267 765.26953125 361.75390625 C767.51251342 364.72391494 769.78794609 367.66362025 772.09765625 370.58203125 C779.28555162 379.6716076 786.03742068 388.94295628 792.48828125 398.5703125 C794.76720568 401.95825198 797.13743518 405.26407711 799.5546875 408.5546875 C803.49105795 413.93654633 807.18543387 419.44668989 810.80859375 425.04296875 C811.45441406 426.0383667 812.10023437 427.03376465 812.765625 428.05932617 C861.65519939 503.6763995 900.57264692 585.66307991 947.62109375 760.16796875 C947.76053406 760.85596558 947.89997437 761.5439624 948.04364014 762.25280762 C954.79940094 795.74226627 959.11964215 829.63202732 961.93359375 863.66796875 C962.0149054 864.64959991 962.09621704 865.63123108 962.17999268 866.64260864 C962.7107766 873.14782797 963.19122832 879.65530468 963.62109375 886.16796875 C963.70221405 887.39451675 963.70221405 887.39451675 963.78497314 888.64584351 C964.87566482 905.90483195 964.86651849 923.19406891 964.87109375 940.48046875 C964.87153561 941.24823009 964.87197746 942.01599144 964.87243271 942.80701828 C964.88071255 970.35179925 964.13024426 997.72213181 961.62109375 1025.16796875 C961.53623718 1026.10010193 961.45138062 1027.03223511 961.36395264 1027.99261475 C953.36230899 1114.70278744 933.68100064 1200.05287278 846.10693359 1400.55908203 C844.35538944 1403.63450116 842.66064661 1406.73810362 840.97119141 1409.84790039 C828.84637471 1432.08861308 814.86878816 1453.24663309 800.62109375 1474.16796875 C799.68136719 1475.54855469 799.68136719 1475.54855469 798.72265625 1476.95703125 C790.33051537 1489.23374389 781.47072927 1501.11526253 772.38232422 1512.88378906 C770.86185998 1514.85571357 769.34978154 1516.83345536 767.84375 1518.81640625 C758.01614525 1531.71812399 747.69953548 1544.20194486 737.08740234 1556.46337891 C735.63548997 1558.15123308 734.1985028 1559.85065833 732.765625 1561.5546875 C725.37414188 1570.32133027 717.59806367 1578.67602224 709.69433594 1586.98144531 C707.63146681 1589.15702891 705.5812639 1591.34380931 703.53515625 1593.53515625 C681.8428614 1616.75636585 681.8428614 1616.75636585 671.4765625 1625.53125 C669.25945791 1627.48696963 667.19733463 1629.56352765 665.12109375 1631.66796875 C661.78988568 1635.0389694 658.36997747 1638.21310905 654.7734375 1641.296875 C652.24057213 1643.49876704 649.77776853 1645.76992701 647.30859375 1648.04296875 C642.84235861 1652.11656784 638.25187996 1655.97624578 633.546875 1659.76953125 C630.89877936 1661.94033328 628.30962952 1664.16091498 625.72875977 1666.41015625 C618.71967753 1672.50964785 611.46793565 1678.20621449 604.0546875 1683.8046875 C600.24742578 1686.68062793 596.48476374 1689.60977146 592.73071289 1692.5546875 C585.18305945 1698.47152157 577.56306843 1704.22858478 569.69775391 1709.71582031 C567.26374991 1711.41784897 564.83937372 1713.13326465 562.4140625 1714.84765625 C549.38969355 1724.02036084 536.16390871 1732.78095818 522.62109375 1741.16796875 C521.01041016 1742.16763672 521.01041016 1742.16763672 519.3671875 1743.1875 C460.76241765 1779.49317401 398.73045172 1809.46631818 333.62109375 1832.16796875 C332.97992615 1832.39186279 332.33875854 1832.61575684 331.67816162 1832.84643555 C261.48944895 1857.31291962 188.63279504 1873.03129088 114.68359375 1880.41796875 C113.92258362 1880.49528229 113.16157349 1880.57259583 112.37750244 1880.6522522 C83.55754458 1883.53346281 54.67359134 1884.55573805 25.72396469 1884.48602676 C23.31960737 1884.48034713 20.91525722 1884.4775511 18.51089478 1884.47494507 C-8.21046852 1884.4329587 -34.75983318 1883.65019353 -61.37890625 1881.16796875 C-62.73885712 1881.04421875 -62.73885712 1881.04421875 -64.12628174 1880.91796875 C-106.55422636 1877.04352578 -148.72245809 1870.44370006 -190.20013428 1860.68041992 C-192.38466956 1860.16661321 -194.57042912 1859.65827642 -196.75634766 1859.15039062 C-279.95698485 1839.72110916 -362.29813614 1808.49195609 -441.69384766 1762.73925781 C-444.56244628 1761.06056162 -447.4441413 1759.40601891 -450.328125 1757.75390625 C-482.97650338 1738.98317751 -514.45614407 1718.03768214 -544.37890625 1695.16796875 C-544.94657715 1694.73532715 -545.51424805 1694.30268555 -546.09912109 1693.85693359 C-549.8730717 1690.97864662 -553.6297474 1688.0784703 -557.37890625 1685.16796875 C-557.94319336 1684.73129883 -558.50748047 1684.29462891 -559.08886719 1683.84472656 C-567.12810947 1677.61689191 -574.99187167 1671.2211709 -582.70947266 1664.59912109 C-584.45391259 1663.1036682 -586.20314881 1661.6139692 -587.953125 1660.125 C-594.85754245 1654.24152717 -601.66329394 1648.26695556 -608.37890625 1642.16796875 C-609.94135371 1640.7720766 -611.50385526 1639.376245 -613.06640625 1637.98046875 C-624.65454207 1627.52947532 -635.92766721 1616.78592508 -646.94335938 1605.73388672 C-648.90249281 1603.76931674 -650.86702269 1601.81025427 -652.83203125 1599.8515625 C-658.35226336 1594.33424498 -663.84583338 1588.84357195 -668.90136719 1582.890625 C-671.57307851 1579.77568861 -674.43147346 1576.83322846 -677.25390625 1573.85546875 C-682.17384398 1568.62848215 -686.83265307 1563.30934013 -691.3125 1557.69921875 C-693.38003407 1555.16658722 -695.54003966 1552.76065715 -697.75390625 1550.35546875 C-701.73574212 1545.98096049 -705.39632708 1541.422678 -709.01782227 1536.75146484 C-711.97943169 1532.93473207 -714.99862583 1529.17565623 -718.0715332 1525.44799805 C-725.88460767 1515.9580859 -733.1884422 1506.13515994 -740.37890625 1496.16796875 C-741.10231201 1495.17071777 -741.10231201 1495.17071777 -741.84033203 1494.15332031 C-767.62479695 1458.53279499 -790.72662506 1420.97374789 -811.37890625 1382.16796875 C-811.92514648 1381.14396973 -812.47138672 1380.1199707 -813.03417969 1379.06494141 C-834.54544238 1338.58867215 -852.67090506 1296.60796561 -867.6418457 1253.29516602 C-868.35983211 1251.22301776 -869.08418331 1249.15320914 -869.81054688 1247.08398438 C-897.36248378 1168.43391986 -912.93281362 1085.67122426 -822.84326172 523.96679688 C-816.08735977 510.01941219 -808.75685913 496.47168891 -801.02441406 483.04443359 C-799.3595631 480.13415555 -797.72095233 477.21055819 -796.08984375 474.28125 C-778.68802604 443.05560695 -758.7974138 412.79270314 -737.37890625 384.16796875 C-736.2496875 382.6365625 -736.2496875 382.6365625 -735.09765625 381.07421875 C-718.02648359 358.06524691 -699.9656646 335.71396126 -680.59375 314.59765625 C-678.73883808 312.5628146 -676.92461827 310.50475628 -675.12890625 308.41796875 C-664.40946324 296.12914539 -652.92244991 284.55011043 -641.38134766 273.04003906 C-638.98221895 270.64633044 -636.58856355 268.24723994 -634.1953125 265.84765625 C-632.6448522 264.29785593 -631.09408216 262.7483654 -629.54296875 261.19921875 C-628.84072174 260.49494751 -628.13847473 259.79067627 -627.41494751 259.06506348 C-623.45409982 255.12271365 -619.39676843 251.35174149 -615.15812683 247.70907593 C-612.39071633 245.31202846 -609.73616274 242.79747266 -607.06640625 240.29296875 C-602.19784875 235.75895181 -597.18558461 231.48304094 -591.99609375 227.31640625 C-589.36049012 225.15285103 -586.8346725 222.90407315 -584.31640625 220.60546875 C-579.503997 216.23123805 -574.4969075 212.17719211 -569.37890625 208.16796875 C-568.38761719 207.38164062 -567.39632813 206.5953125 -566.375 205.78515625 C-519.08847273 168.31726006 -468.68818221 135.42644414 -415.37890625 107.16796875 C-414.27482422 106.57902832 -413.17074219 105.99008789 -412.03320312 105.38330078 C-369.54280496 82.77345535 -325.11770695 64.20138205 -279.50537109 48.88287354 C-277.45289453 48.19284317 -275.40206592 47.49811459 -273.3515625 46.80224609 C-252.27278571 39.66804039 -230.93444804 33.67107272 -209.37890625 28.16796875 C-208.61126953 27.97160828 -207.84363281 27.7752478 -207.05273438 27.57293701 C-154.74502111 14.23762053 -101.52017969 6.28477618 -47.75 1.9296875 C-46.98166336 1.86643784 -46.21332672 1.80318817 -45.42170715 1.73802185 C-30.28715576 0.55518425 -15.17771713 0.00698372 0 0 Z M-81.75634766 38.84912109 C-84.94406148 39.23667967 -88.13568737 39.53796023 -91.33300781 39.83325195 C-104.54274456 41.07365028 -117.6082532 43.35191432 -130.68505859 45.55078125 C-133.93127332 46.09317589 -137.17951543 46.61871057 -140.4296875 47.13671875 C-154.96002922 49.49653173 -169.23150818 52.79124086 -183.53710938 56.24462891 C-187.31973692 57.15374796 -191.10634931 58.04402918 -194.89453125 58.9296875 C-210.21342548 62.53085773 -225.35472177 66.48481656 -240.37890625 71.16796875 C-241.07157593 71.38346375 -241.76424561 71.59895874 -242.47790527 71.82098389 C-292.48807612 87.40674671 -340.56130689 106.67533847 -387.37890625 130.16796875 C-388.32537018 130.64200134 -388.32537018 130.64200134 -389.29095459 131.12561035 C-405.04280187 139.02304229 -420.40137388 147.4590873 -435.53515625 156.48291016 C-438.28376447 158.11159267 -441.04652528 159.71250773 -443.81640625 161.3046875 C-458.78078143 169.94482461 -473.09515108 179.46176901 -487.37890625 189.16796875 C-488.19149902 189.71759277 -489.0040918 190.2672168 -489.84130859 190.83349609 C-516.64760692 208.97124073 -542.16655133 228.76395685 -566.76367188 249.79101562 C-568.42725168 251.20918221 -570.09786501 252.61872192 -571.76953125 254.02734375 C-579.83490912 260.84840093 -587.59198075 267.9497362 -595.26977539 275.20239258 C-596.81990864 276.64701844 -598.38363637 278.07709191 -599.95483398 279.4987793 C-607.91698508 286.70665666 -615.56228944 294.19730702 -623.14428711 301.80297852 C-625.20247782 303.86656936 -627.26601605 305.9247055 -629.33007812 307.98242188 C-630.66568559 309.31868965 -632.00098309 310.65526732 -633.3359375 311.9921875 C-633.94025101 312.59447678 -634.54456451 313.19676605 -635.16719055 313.81730652 C-638.86044754 317.53058775 -642.36488124 321.36330401 -645.7816925 325.3326416 C-648.35711383 328.29200799 -651.06240015 331.12712637 -653.75390625 333.98046875 C-658.38162936 338.92545737 -662.77718443 343.98024113 -667.01171875 349.26953125 C-669.84878189 352.74329503 -672.79781643 356.10809481 -675.75390625 359.48046875 C-681.36292992 365.90722178 -686.69067602 372.5037689 -691.8984375 379.2578125 C-693.50525462 381.33098815 -695.12836816 383.39069309 -696.75390625 385.44921875 C-704.1122038 394.79160509 -711.13623778 404.30284534 -717.91552734 414.07226562 C-719.37454676 416.16172553 -720.85168471 418.23699744 -722.3359375 420.30859375 C-771.14608012 488.52102842 -809.04629023 564.43955378 -836.94140625 643.41796875 C-837.18957092 644.12008484 -837.4377356 644.82220093 -837.69342041 645.54559326 C-842.18267869 658.28865154 -846.154213 671.1456414 -849.75390625 684.16796875 C-853.23141982 696.70628 -853.23141982 696.70628 -854.953125 702.5390625 C-859.00625459 716.29306033 -862.30338096 730.16502288 -865.37890625 744.16796875 C-865.52668518 744.83769714 -865.67446411 745.50742554 -865.82672119 746.19744873 C-866.78296036 750.53185547 -867.72954681 754.8682267 -868.66506958 759.20715332 C-868.9682935 760.61157143 -869.27313713 762.01564107 -869.57980347 763.41931152 C-871.38629337 771.71102616 -872.81269083 779.96785885 -873.85864258 788.39599609 C-874.39281131 792.26878208 -875.09314892 796.07765697 -875.84375 799.9140625 C-877.60792076 808.9689072 -878.79680887 818.07959718 -879.94140625 827.23046875 C-880.10390366 828.51695816 -880.10390366 828.51695816 -880.26968384 829.82943726 C-881.96162599 843.25847767 -883.42629767 856.66471036 -884.37890625 870.16796875 C-884.46094299 871.30688568 -884.54297974 872.44580261 -884.62750244 873.61923218 C-886.15633778 895.33671392 -886.69899987 916.95927665 -886.63964844 938.72753906 C-886.62823663 942.95306613 -886.6350535 947.1783415 -886.64653683 951.40386009 C-886.70516322 976.94391961 -886.37920367 1002.57801334 -882.8059082 1027.91235352 C-882.39092208 1031.07635578 -882.16206118 1034.19748672 -881.984375 1037.3828125 C-881.35674208 1046.51989622 -880.06916648 1055.54547895 -878.75390625 1064.60546875 C-878.62263336 1065.5153656 -878.49136047 1066.42526245 -878.35610962 1067.36273193 C-872.31810405 1109.02438271 -864.7143536 1150.78007032 -852.44140625 1191.10546875 C-852.21517578 1191.85763672 -851.98894531 1192.60980469 -851.75585938 1193.38476562 C-850.97145103 1195.98164884 -850.17666173 1198.57515332 -849.37890625 1201.16796875 C-849.02650879 1202.31491211 -848.67411133 1203.46185547 -848.31103516 1204.64355469 C-828.81515406 1267.7546709 -803.90115604 1329.3304781 -770.83691406 1386.61474609 C-769.07478029 1389.70054566 -767.37666911 1392.81816336 -765.68212891 1395.94140625 C-741.98868741 1439.45957149 -712.16757189 1481.6293923 -679.8828125 1519.234375 C-677.54646772 1521.97165258 -675.26743193 1524.74539889 -673.00390625 1527.54296875 C-663.98545781 1538.59577412 -654.52358366 1549.2132844 -644.73828125 1559.58984375 C-641.80396554 1562.70239686 -638.93459465 1565.86929282 -636.06640625 1569.04296875 C-629.79261026 1575.90749021 -623.19609405 1582.46142009 -616.62890625 1589.04296875 C-615.81321671 1589.86254059 -615.81321671 1589.86254059 -614.98104858 1590.69866943 C-609.53761836 1596.16251855 -604.08401397 1601.56207053 -598.21630859 1606.57568359 C-594.89619864 1609.45287694 -591.74832079 1612.51492918 -588.56640625 1615.54296875 C-583.1645914 1620.64893113 -577.69018648 1625.50530723 -571.875 1630.13671875 C-569.35167294 1632.19013044 -566.95958352 1634.33984932 -564.56640625 1636.54296875 C-560.19268604 1640.52408731 -555.63561847 1644.18463195 -550.96459961 1647.8046875 C-547.12772654 1650.78112115 -543.35278736 1653.81924632 -539.60839844 1656.91113281 C-531.19979541 1663.84294123 -522.49698209 1670.26320723 -513.61279297 1676.56933594 C-511.47949555 1678.09598419 -509.36575935 1679.64562652 -507.2578125 1681.20703125 C-439.14723766 1731.49420316 -362.00689145 1770.77649198 -221.37890625 1818.16796875 C-219.94629089 1818.55609885 -218.51396936 1818.94531621 -217.08203125 1819.3359375 C-208.21231418 1821.73738579 -199.29813078 1823.95932494 -190.37890625 1826.16796875 C-189.3225145 1826.42992538 -189.3225145 1826.42992538 -188.24478149 1826.69717407 C-161.8146944 1833.23163679 -135.320254 1838.25866162 -108.37890625 1842.16796875 C-107.53910217 1842.29042969 -106.6992981 1842.41289063 -105.83404541 1842.5390625 C-81.15670693 1846.120005 -56.45872991 1848.48326441 -31.57296753 1850.02694702 C-29.51665231 1850.15911522 -27.46149913 1850.30902562 -25.40649414 1850.46020508 C-10.96800284 1851.47005344 3.50976935 1851.35526144 17.97583008 1851.35327148 C21.0149536 1851.3531906 24.05392518 1851.36008748 27.09301758 1851.3737793 C45.33545075 1851.45457542 63.36874415 1851.06383933 81.55551147 1849.43746948 C85.50994819 1849.08982799 89.46734529 1848.79029495 93.42565918 1848.49067688 C136.22463085 1845.22580826 177.8814909 1838.83799425 219.8828125 1830.0390625 C220.6472316 1829.87921371 221.4116507 1829.71936493 222.19923401 1829.55467224 C228.2593029 1828.27386204 234.27917993 1826.85529736 240.2734375 1825.29296875 C243.53338935 1824.4471434 246.79706968 1823.61739506 250.0625 1822.79296875 C261.5741688 1819.86427331 272.92167136 1816.62598887 284.21240234 1812.93896484 C286.96006792 1812.05946678 289.71957537 1811.22376329 292.48046875 1810.38671875 C339.09364152 1796.07689975 383.84792241 1777.58872872 427.62109375 1756.16796875 C429.03382568 1755.48202637 429.03382568 1755.48202637 430.47509766 1754.78222656 C443.8834625 1748.2645647 456.90720315 1741.2094722 469.82470703 1733.76904297 C472.51618149 1732.22803638 475.21982584 1730.71151554 477.9296875 1729.203125 C490.34727821 1722.2623086 502.25588849 1714.68546244 514.109375 1706.82470703 C517.40280176 1704.65235147 520.72824878 1702.53303677 524.05859375 1700.41796875 C544.33496316 1687.4022394 563.72905724 1673.10698607 582.62109375 1658.16796875 C583.59949219 1657.39453125 584.57789063 1656.62109375 585.5859375 1655.82421875 C587.94014223 1653.94978086 590.28383301 1652.06347918 592.62109375 1650.16796875 C593.47445313 1649.47703125 594.3278125 1648.78609375 595.20703125 1648.07421875 C605.12319656 1640.00490371 614.90836576 1631.80146919 624.37109375 1623.203125 C626.3709875 1621.39419332 628.39378807 1619.61905074 630.43359375 1617.85546875 C639.44377407 1609.98972666 648.11847419 1601.8038854 656.4765625 1593.25 C658.62109375 1591.16796875 658.62109375 1591.16796875 660.62109375 1590.16796875 C660.62109375 1589.50796875 660.62109375 1588.84796875 660.62109375 1588.16796875 C661.50945923 1587.77532837 661.50945923 1587.77532837 662.41577148 1587.37475586 C664.74536871 1586.09996353 666.1243118 1584.81493932 667.90625 1582.859375 C668.51404297 1582.20001953 669.12183594 1581.54066406 669.74804688 1580.86132812 C670.70614258 1579.80655273 670.70614258 1579.80655273 671.68359375 1578.73046875 C673.02712689 1577.27203676 674.37218874 1575.81501161 675.71875 1574.359375 C676.3802002 1573.64410645 677.04165039 1572.92883789 677.72314453 1572.19189453 C680.29409572 1569.45029621 682.94489928 1566.80704541 685.62109375 1564.16796875 C689.1811661 1560.64459818 692.56979688 1557.05907677 695.8203125 1553.25 C697.99433577 1550.73643297 700.24499863 1548.30020646 702.49609375 1545.85546875 C706.56649431 1541.39274043 710.42286284 1536.80538875 714.21484375 1532.10546875 C716.91888987 1528.80442543 719.70245572 1525.5805429 722.49609375 1522.35546875 C727.97531595 1516.00652874 733.19808222 1509.48583984 738.32275391 1502.84863281 C739.55694385 1501.25100898 740.79782413 1499.65856015 742.0390625 1498.06640625 C753.58977163 1483.18050052 764.63827119 1467.95959965 775.16308594 1452.33154297 C776.47923963 1450.37846962 777.80287628 1448.43074803 779.12890625 1446.484375 C819.71791379 1386.61329736 852.49100376 1321.10479495 876.93139648 1253.06689453 C877.59486838 1251.24017439 878.28327391 1249.42256903 878.97265625 1247.60546875 C885.87729928 1229.23934211 892.06886635 1210.64972721 896.96044922 1191.64794922 C897.60625869 1189.22365779 898.30550211 1186.82334153 899.03125 1184.421875 C904.01544075 1167.89376327 907.56403125 1151.05182864 911.18621826 1134.18481445 C911.79312617 1131.37012464 912.41284287 1128.55827628 913.03125 1125.74609375 C921.0760136 1088.72189764 925.70602393 1051.51728399 928.80859375 1013.79296875 C928.9358786 1012.24872223 928.9358786 1012.24872223 929.06573486 1010.67327881 C930.92408326 987.90930743 931.82722066 965.32401734 931.80859375 942.48046875 C931.80832184 941.22207184 931.80804993 939.96367493 931.80776978 938.66714478 C931.78965316 920.39443317 931.4484732 902.26337735 929.94189453 884.04833984 C929.65445428 880.57149412 929.38841117 877.09401019 929.13021851 873.6149292 C924.66029233 813.64362119 915.82846028 752.98234659 897.85951233 695.44200134 C896.35968518 690.63108627 894.94142285 685.80567917 893.58839417 680.95153809 C890.31316395 669.23011871 886.6216496 657.68199453 882.68359375 646.16796875 C882.36328186 645.22863495 882.04296997 644.28930115 881.71295166 643.32150269 C866.10486128 597.71234454 846.58889179 552.92635367 823.09619141 510.83300781 C821.6063406 508.14131442 820.14661503 505.43530786 818.6953125 502.72265625 C811.46944796 489.23941624 803.71511847 476.14693351 795.62109375 463.16796875 C795.05132813 462.25015625 794.4815625 461.33234375 793.89453125 460.38671875 C784.93355261 445.9836846 775.44065593 431.99798322 765.62109375 418.16796875 C765.0394043 417.34780273 764.45771484 416.52763672 763.85839844 415.68261719 C752.46709463 399.6633896 740.53776927 384.11152717 728.06103516 368.92382812 C726.77743674 367.35861283 725.50146303 365.78715175 724.2265625 364.21484375 C715.72834801 353.74136859 706.97582654 343.51826349 697.77905273 333.65209961 C695.0874373 330.76437376 692.44445292 327.84896819 689.87109375 324.85546875 C687.0069184 321.53942107 683.96018847 318.46088779 680.80859375 315.41796875 C678.92408476 313.47961664 677.16244909 311.49959998 675.3984375 309.453125 C671.51114188 304.9795759 667.38424914 300.78343833 663.18359375 296.60546875 C662.47138672 295.88939453 661.75917969 295.17332031 661.02539062 294.43554688 C656.9417843 290.35935854 652.75247398 286.47793384 648.38256836 282.71118164 C646.19201723 280.79205847 644.14851379 278.75777095 642.12109375 276.66796875 C638.78988568 273.2969681 635.36997747 270.12282845 631.7734375 267.0390625 C629.24057213 264.83717046 626.77776853 262.56601049 624.30859375 260.29296875 C619.82311823 256.20236315 615.21528831 252.31979032 610.4921875 248.5078125 C607.94356348 246.43077061 605.43403811 244.31848405 602.93505859 242.18261719 C595.65705084 235.96430135 588.19849728 230.01625238 580.62109375 224.16796875 C579.84733398 223.56823242 579.07357422 222.96849609 578.27636719 222.35058594 C550.61062714 200.93577274 521.59841986 181.20912889 491.62109375 163.16796875 C490.87714355 162.72018066 490.13319336 162.27239258 489.36669922 161.81103516 C479.45711949 155.87059721 469.4204114 150.16369013 459.28173828 144.62402344 C457.41069781 143.60008461 455.54209514 142.57168475 453.67529297 141.54003906 C410.17137825 117.53369604 364.67855486 98.6308028 317.91647339 81.98718262 C315.63705896 81.17366668 313.3604781 80.35259754 311.08422852 79.53027344 C302.77631841 76.54268996 294.46419118 73.83974771 285.93359375 71.54296875 C283.76685457 70.94818078 281.6001872 70.3531311 279.43359375 69.7578125 C277.91572266 69.34378174 277.91572266 69.34378174 276.3671875 68.92138672 C273.04741386 68.010574 269.74010649 67.06324468 266.43359375 66.10546875 C265.35207031 65.79867187 264.27054688 65.491875 263.15625 65.17578125 C261.29735172 64.64584119 259.43892126 64.11404674 257.58544922 63.56542969 C237.23074165 57.55265893 216.39942685 53.41873022 195.62109375 49.16796875 C194.93839417 49.02812561 194.25569458 48.88828247 193.55230713 48.74420166 C110.94217668 31.89200132 23.4324388 27.96772975 -81.75634766 38.84912109 Z " fill="#FCFCFC" transform="translate(977.37890625,49.83203125)"/>
<path d="M0 0 C104.28 0 208.56 0 316 0 C315.3367 5.96970004 314.58340171 11.75466207 313.46875 17.6328125 C313.31720459 18.44609009 313.16565918 19.25936768 313.00952148 20.09729004 C312.50972442 22.77383815 312.00500974 25.44943091 311.5 28.125 C311.14241268 30.03170726 310.78499438 31.93844623 310.42773438 33.84521484 C304.86571438 63.48075577 299.16813726 93.09033613 293.3744812 122.68139648 C290.76931137 135.99170444 288.22186986 149.3120139 285.7121582 162.640625 C284.10371083 171.17987351 282.48290942 179.71658782 280.84375 188.25 C280.56477623 189.70234795 280.56477623 189.70234795 280.28016663 191.18403625 C279.89928807 193.16660879 279.51839296 195.14917814 279.13748169 197.13174438 C275.42023072 216.48311249 271.77002022 235.84601377 268.18257141 255.22186279 C267.88310336 256.83851932 267.58322027 258.45509903 267.28288269 260.07159424 C266.56109262 263.95783232 265.84599055 267.84507683 265.14355469 271.73486328 C265.00726654 272.48163834 264.87097839 273.22841339 264.7305603 273.99781799 C264.36003371 276.02812092 263.99312327 278.05908284 263.62646484 280.09008789 C263 283 263 283 262 284 C259.30669231 284.09784411 256.63903832 284.12993795 253.94529724 284.12025452 C252.66382194 284.12153615 252.66382194 284.12153615 251.35645825 284.12284368 C248.4712606 284.12450111 245.58612009 284.11897284 242.70092773 284.11352539 C240.64169313 284.11324355 238.58245842 284.11340119 236.52322388 284.1139679 C230.91394913 284.11425599 225.30469556 284.10835735 219.69542575 284.10139394 C213.8404137 284.09516237 207.98540121 284.09455676 202.13038635 284.09336853 C191.03459239 284.09025463 179.93880823 284.08204045 168.84301859 284.07201904 C156.21445826 284.06085972 143.58589747 284.05534791 130.95733345 284.05032361 C104.97155019 284.03985789 78.98577564 284.02225731 53 284 C51.76717211 277.56485814 50.53452084 271.12968247 49.30198479 264.69448471 C48.88381894 262.51130557 48.4656146 260.3281338 48.047369 258.14496994 C45.05343722 242.51701797 42.07045806 226.88717113 39.125 211.25 C38.92577942 210.19397583 38.72655884 209.13795166 38.52130127 208.04992676 C36.0643876 195.02611215 33.62426932 181.99926239 31.203125 168.96875 C30.96961838 167.71222122 30.73611176 166.45569244 30.49552917 165.16108704 C30.26199234 163.90434677 30.02845551 162.64760651 29.7878418 161.3527832 C29.31689625 158.81852182 28.84594899 156.28426075 28.375 153.75 C28.02654526 151.87433853 28.02654526 151.87433853 27.67105103 149.96078491 C24.64092146 133.66072745 21.53801669 117.377795 18.32907104 101.11206055 C15.38717153 86.1830294 12.64242061 71.22180715 9.9465332 56.24658203 C8.31519276 47.19227556 6.66223542 38.1432494 4.94140625 29.10546875 C4.77648178 28.23908783 4.61155731 27.37270691 4.44163513 26.48007202 C3.65970813 22.37935447 2.87323176 18.27955481 2.08178711 14.18066406 C1.80449792 12.7337291 1.52723403 11.28678928 1.25 9.83984375 C1.00765625 8.58550537 0.7653125 7.33116699 0.515625 6.03881836 C0 3 0 3 0 0 Z " fill="#FEFEFE" transform="translate(366,1271)"/>
<path d="M0 0 C64.68 0 129.36 0 196 0 C200.56186869 22.80934343 200.56186869 22.80934343 201.875 30.625 C202.20520045 32.55477804 202.53596819 34.48445907 202.8671875 36.4140625 C203.04475586 37.45079102 203.22232422 38.48751953 203.40527344 39.55566406 C204.58260031 46.37410722 205.79417722 53.18654954 207 60 C208.68352051 69.51796568 210.3567103 79.03748996 212 88.5625 C213.24500757 95.76580365 214.53654937 102.95941988 215.85620117 110.14941406 C218.96767833 127.11250349 221.9714096 144.09427964 224.94625854 161.08178711 C225.43471332 163.87103825 225.92425783 166.66009432 226.41482544 169.44897461 C231.25418397 196.97131856 231.25418397 196.97131856 233.04472351 209.70491028 C233.75469865 214.69157613 234.70853882 219.58600692 235.8125 224.5 C237.95795001 234.25565249 239.60579383 244.08753536 241.25 253.9375 C241.45503647 255.15566406 241.45503647 255.15566406 241.66421509 256.3984375 C242.05613607 258.73243714 242.44308787 261.06719964 242.828125 263.40234375 C242.94667343 264.10886581 243.06522186 264.81538788 243.18736267 265.5433197 C243.71195216 268.76730236 244 271.71906028 244 275 C145.99 275 47.98 275 -53 275 C-53 270.33700774 -52.99525141 267.10325484 -52.08544922 262.75610352 C-51.88437057 261.77763458 -51.68329193 260.79916565 -51.47612 259.79104614 C-51.25454727 258.74753998 -51.03297455 257.70403381 -50.8046875 256.62890625 C-50.57670975 255.52658661 -50.34873199 254.42426697 -50.11384583 253.2885437 C-49.62603071 250.93239079 -49.135225 248.5768554 -48.64169312 246.22189331 C-47.35499763 240.08055102 -46.09018531 233.93470548 -44.82421875 227.7890625 C-44.57515274 226.58239426 -44.32608673 225.37572601 -44.06947327 224.13249207 C-42.17328666 214.91849618 -40.38277515 205.69033311 -38.6875 196.4375 C-36.91220598 186.76384372 -35.02231534 177.12513138 -33 167.5 C-30.90014716 157.50018232 -28.92675249 147.48386888 -27.0625 137.4375 C-24.99416366 126.3054304 -22.90553437 115.17806725 -20.75 104.0625 C-20.6091095 103.33582123 -20.46821899 102.60914246 -20.32305908 101.86044312 C-17.41833015 86.91328578 -14.35205867 71.9996061 -11.28701782 57.08465576 C-8.2906557 42.49331759 -5.39724649 27.88931244 -2.71264648 13.23730469 C-2.38889038 11.4704834 -2.38889038 11.4704834 -2.05859375 9.66796875 C-1.87611084 8.66016357 -1.69362793 7.6523584 -1.50561523 6.61401367 C-1.07622618 4.39408676 -0.54839072 2.19356287 0 0 Z " fill="#FEFEFE" transform="translate(666,516)"/>
<path d="M0 0 C0.73247639 0.00291284 1.46495277 0.00582568 2.21962541 0.00882679 C2.99227123 0.00797237 3.76491706 0.00711794 4.56097639 0.00623763 C7.16978554 0.00458048 9.77853146 0.010108 12.38733476 0.01555592 C14.24952754 0.01583777 16.11172042 0.0156801 17.97391313 0.01511341 C23.04601585 0.01482534 28.11809515 0.0207236 33.1901924 0.02768737 C38.48466001 0.03391934 43.77912809 0.03452458 49.0735988 0.03571278 C59.10691424 0.03882656 69.14021885 0.04704058 79.17352951 0.05706227 C90.59292284 0.06822195 102.01231669 0.07373349 113.43171412 0.0787577 C136.92921543 0.08922315 160.42670711 0.1068235 183.9242 0.12908131 C184.0931317 1.32191322 184.0931317 1.32191322 184.26547617 2.53884274 C184.78336995 6.19162303 185.30274959 9.84419062 185.82214922 13.49675709 C186.08779932 15.37280377 186.08779932 15.37280377 186.35881609 17.28675038 C187.77300098 27.220185 189.3499411 37.1160556 191.0492 47.00408131 C192.62103994 56.20307781 194.14341528 65.39587976 195.43250078 74.6398235 C196.23697559 80.34863881 197.11395976 86.04650533 197.98334306 91.74571949 C199.69906803 102.99457598 201.39201901 114.24642806 203.0492 125.50408131 C204.13665747 132.8853998 205.24589975 140.26170501 206.4242 147.62908131 C208.79674906 162.47347727 211.07900722 177.34228279 212.9867 192.25408131 C213.73896497 198.04784134 214.71338259 203.77959032 215.74866289 209.52751881 C218.16245118 222.95657486 220.1407902 236.42633081 221.8629207 249.96086842 C222.66302093 256.22983253 223.55448542 262.46876361 224.59216875 268.70330006 C224.9242 271.12908131 224.9242 271.12908131 224.9242 275.12908131 C160.2442 275.12908131 95.5642 275.12908131 28.9242 275.12908131 C24.0840548 253.34842792 20.03250705 231.4251404 16.03803056 209.4769817 C13.21949568 194.00404933 10.28433117 178.558482 7.2367 163.12908131 C4.68457955 150.20724547 2.18005608 137.28252187 -0.1383 124.31658131 C-2.48570752 111.19009464 -5.01296696 98.10377349 -7.58953291 85.02043873 C-10.26779546 71.41093043 -12.82415964 57.78380742 -15.26134688 44.12908131 C-15.48757735 42.864511 -15.71380781 41.59994068 -15.94689375 40.29705006 C-16.23971236 38.64612355 -16.23971236 38.64612355 -16.53844649 36.96184498 C-16.85595369 35.28804396 -17.20404281 33.61876021 -17.61925703 31.96648365 C-19.43022624 24.67805894 -17.53144723 20.28351567 -13.85900313 14.00994068 C-13.2911711 13.07988209 -12.72333906 12.1498235 -12.1383 11.19158131 C-11.57433516 10.2344524 -11.01037031 9.2773235 -10.42931563 8.29119068 C-5.52567289 0.01666061 -5.52567289 0.01666061 0 0 Z " fill="#FEFEFE" transform="translate(246.07580000162125,515.8709186911583)"/>
<path d="M0 0 C120.45 0 240.9 0 365 0 C363.35 8.25 361.7 16.5 360 25 C358.63112216 32.22675733 357.27271627 39.45457658 355.9375 46.6875 C355.60887492 48.45901239 355.28009857 50.23049672 354.95117188 52.00195312 C352.6048482 64.66280862 350.30342769 77.33114772 348 90 C238.77 90 129.54 90 17 90 C15.09032521 81.72474259 13.25219023 73.49705076 11.66015625 65.1640625 C11.45192734 64.08281097 11.24369843 63.00155945 11.02915955 61.88754272 C10.59191607 59.61389302 10.15585821 57.340015 9.72094727 55.06591797 C9.07053637 51.66699652 8.41544613 48.26900209 7.75976562 44.87109375 C5.65290924 33.91512238 3.60395011 22.95126632 1.68359375 11.9609375 C1.51231461 10.98347565 1.34103546 10.00601379 1.16456604 8.99893188 C1.01027634 8.10515839 0.85598663 7.21138489 0.69702148 6.29052734 C0.56166489 5.50688812 0.42630829 4.7232489 0.28684998 3.91586304 C0 2 0 2 0 0 Z " fill="#FDFDFD" transform="translate(342,1145)"/>
<path d="M0 0 C117.48 0 234.96 0 356 0 C350.43877551 30.03061224 350.43877551 30.03061224 348.0625 42.1875 C344.9781477 58.11282923 341.98939261 74.05657276 339 90 C232.41 90 125.82 90 16 90 C14.35 80.76 12.7 71.52 11 62 C9.25294385 52.67283605 7.49919957 43.34720752 5.72143555 34.02587891 C5.14094232 30.97870944 4.56438016 27.93081538 3.98828125 24.8828125 C3.81742508 23.99296661 3.64656891 23.10312073 3.47053528 22.18630981 C2.07861579 14.80142619 1.06635975 7.46451826 0 0 Z " fill="#FDFDFD" transform="translate(799,1145)"/>
<path d="M0 0 C102.96 0 205.92 0 312 0 C317.39473684 30.21052632 317.39473684 30.21052632 319.953125 45.015625 C320.73770557 49.52927087 321.54483454 54.03854104 322.359375 58.546875 C322.59011719 59.82626953 322.82085938 61.10566406 323.05859375 62.42382812 C323.51207547 64.93334987 323.96772989 67.44248018 324.42578125 69.95117188 C324.63074219 71.08619141 324.83570313 72.22121094 325.046875 73.390625 C325.23088867 74.40157227 325.41490234 75.41251953 325.60449219 76.45410156 C326 79 326 79 326 82 C213.47 82 100.94 82 -15 82 C-15 73.00097368 -15 73.00097368 -14.25317383 69.48120117 C-14.08896439 68.68715881 -13.92475494 67.89311646 -13.75556946 67.07501221 C-13.57455185 66.23943787 -13.39353424 65.40386353 -13.20703125 64.54296875 C-13.02057541 63.6496283 -12.83411957 62.75628784 -12.64201355 61.83587646 C-12.2441396 59.93283173 -11.84279358 58.03051008 -11.43823242 56.12887573 C-10.38716827 51.18814629 -9.36049992 46.24234849 -8.33203125 41.296875 C-8.02726364 39.83597694 -8.02726364 39.83597694 -7.71633911 38.3455658 C-5.80197099 29.13260232 -4.06421148 19.89470862 -2.40942383 10.6315918 C-2.14488403 9.15686401 -2.14488403 9.15686401 -1.875 7.65234375 C-1.72804688 6.81695068 -1.58109375 5.98155762 -1.4296875 5.12084961 C-1 3 -1 3 0 0 Z " fill="#FEFEFE" transform="translate(605,827)"/>
<path d="M0 0 C1.56047445 0.00015913 3.12095416 0.00585397 4.68139648 0.01586914 C5.91115456 0.01799156 5.91115456 0.01799156 7.16575623 0.02015686 C9.79470406 0.0257725 12.42356797 0.0383276 15.05249023 0.05102539 C16.8304838 0.05603838 18.60847869 0.06060163 20.38647461 0.06469727 C24.75434569 0.07574701 29.12215371 0.09302208 33.48999023 0.11352539 C33.69192993 1.09349487 33.69192993 1.09349487 33.89794922 2.09326172 C35.27025448 8.74857195 36.64725117 15.40290111 38.02766418 22.05653381 C38.87988355 26.16551891 39.72985803 30.27495492 40.5769043 34.38500977 C41.53886138 39.05207311 42.50522972 43.71820779 43.47390747 48.38388062 C43.85334471 50.21498202 44.23138441 52.0463737 44.60787964 53.87808228 C47.24713828 66.71173375 50.22034895 79.42568283 53.48999023 92.11352539 C53.68109375 91.39922363 53.87219727 90.68492188 54.0690918 89.94897461 C54.95818896 86.62850164 55.84908433 83.3085135 56.73999023 79.98852539 C57.0403418 78.86575195 57.34069336 77.74297852 57.65014648 76.58618164 C59.52148828 69.61841964 61.45747269 62.67258241 63.44995117 55.73852539 C65.12480965 49.9008966 66.77147718 44.05536093 68.41723633 38.20947266 C68.79860507 36.85549983 69.18043991 35.5016582 69.56274414 34.14794922 C70.1332896 32.12765312 70.70266434 30.10703289 71.27124023 28.08618164 C71.54883179 27.09976181 71.54883179 27.09976181 71.83203125 26.09341431 C72.77737895 22.71703179 73.70094867 19.33632908 74.59155273 15.94506836 C74.76908081 15.26963486 74.94660889 14.59420135 75.1295166 13.89830017 C75.61563002 12.03918622 76.09691824 10.17881251 76.57788086 8.31835938 C77.48999023 5.11352539 77.48999023 5.11352539 79.48999023 0.11352539 C91.36999023 0.11352539 103.24999023 0.11352539 115.48999023 0.11352539 C116.47999023 3.57852539 116.47999023 3.57852539 117.48999023 7.11352539 C117.860905 8.39612925 118.23196317 9.67869166 118.60327148 10.96118164 C121.72092121 21.85605433 124.3025613 32.82644576 126.76586914 43.88500977 C128.02093358 49.48075225 129.30515805 55.06970261 130.59991455 60.65637207 C131.03733872 62.54800303 131.47052797 64.44061174 131.90356445 66.33325195 C133.83916579 74.68074359 136.0628728 82.89794108 138.48999023 91.11352539 C141.63403768 79.13175871 144.18363983 67.08247801 146.55249023 54.92602539 C147.22816863 51.47366575 147.90645793 48.02183331 148.58764648 44.57055664 C148.75069275 43.74410141 148.91373901 42.91764618 149.08172607 42.06614685 C150.22025756 36.34492193 151.48387194 30.66191626 152.82666016 24.98486328 C154.06908966 19.60679432 155.08490538 14.18368056 156.12670898 8.76391602 C156.29041992 7.92666992 156.45413086 7.08942383 156.62280273 6.22680664 C156.7660498 5.48213135 156.90929687 4.73745605 157.05688477 3.97021484 C157.48999023 2.11352539 157.48999023 2.11352539 158.48999023 0.11352539 C169.37999023 0.11352539 180.26999023 0.11352539 191.48999023 0.11352539 C193.74060284 4.61475061 193.74060284 4.61475061 192.76733398 8.28149414 C192.56108398 9.08321045 192.35483398 9.88492676 192.14233398 10.7109375 C191.90643555 11.5656665 191.67053711 12.42039551 191.42749023 13.30102539 C191.19288086 14.19378174 190.95827148 15.08653809 190.71655273 16.00634766 C189.05759188 22.24685714 187.23690344 28.43601712 185.36450195 34.61523438 C183.71061888 40.15195173 182.35348908 45.73449221 181.05249023 51.36352539 C179.4082614 58.46734574 177.59199987 65.48783286 175.55249023 72.48852539 C171.65500789 85.88070088 168.20248715 99.38091252 164.76249695 112.89675903 C163.94073485 116.12362043 163.11657174 119.349867 162.29238892 122.57611084 C161.6831567 124.96629432 161.07807732 127.35750463 160.47314453 129.7487793 C160.0974309 131.22197014 159.72154385 132.69511677 159.34545898 134.16821289 C159.17280518 134.85562561 159.00015137 135.54303833 158.82226562 136.25128174 C157.60367868 140.99983694 157.60367868 140.99983694 156.48999023 142.11352539 C153.67835644 142.20214531 150.89140768 142.22874894 148.07983398 142.21118164 C147.23779922 142.20976669 146.39576447 142.20835175 145.5282135 142.20689392 C142.82793689 142.20127802 140.12774196 142.18872287 137.42749023 142.17602539 C135.60131955 142.17101244 133.77514758 142.16644918 131.94897461 142.16235352 C127.46261481 142.15130343 122.97631639 142.13402818 118.48999023 142.11352539 C118.34489014 141.52788818 118.19979004 140.94225098 118.05029297 140.33886719 C114.85788079 127.47097128 111.59738306 114.62330085 108.2487793 101.79516602 C106.57766472 95.3717619 104.9392046 88.94127759 103.33764648 82.50024414 C103.15723816 81.77507599 102.97682983 81.04990784 102.79095459 80.30276489 C101.90834853 76.75168013 101.02926578 73.19976259 100.15454102 69.64672852 C99.83281251 68.34788829 99.51103743 67.0490596 99.18920898 65.75024414 C98.90907959 64.61288818 98.6289502 63.47553223 98.34033203 62.30371094 C97.51040022 59.19009653 96.54266724 56.15826641 95.48999023 53.11352539 C92.84340314 61.61419715 90.52776607 70.20234905 88.2109375 78.79711914 C87.55935566 81.21306961 86.90471061 83.62817492 86.24975586 86.04321289 C84.04258118 94.2042891 81.90771326 102.37701565 79.88128662 110.58482361 C78.48779346 116.1976329 76.93181963 121.7528414 75.30249023 127.30102539 C74.7862944 129.06480125 74.27190783 130.82910784 73.75952148 132.59399414 C73.4285144 133.72164185 73.4285144 133.72164185 73.09082031 134.87207031 C72.4507622 137.25986937 71.97480815 139.6894358 71.48999023 142.11352539 C58.28999023 142.11352539 45.08999023 142.11352539 31.48999023 142.11352539 C30.74749023 139.12290039 30.00499023 136.13227539 29.23999023 133.05102539 C27.42110987 125.75663709 25.54494837 118.4815584 23.58764648 111.22290039 C22.45781747 107.01819335 21.36887069 102.80309897 20.27709961 98.58837891 C17.52391277 87.94624233 17.52391277 87.94624233 14.55249023 77.36352539 C12.34468406 69.7628812 10.39053564 62.0990338 8.42138672 54.43359375 C6.67351484 47.6411604 4.8931754 40.85927788 3.07202148 34.08618164 C2.66010273 32.54941213 2.24823734 31.01262832 1.83642578 29.47583008 C1.23140007 27.21850417 0.62468335 24.96171252 0.01211548 22.7064209 C-0.55990458 20.59987978 -1.12534059 18.4916617 -1.68969727 16.38305664 C-2.18058838 14.56704956 -2.18058838 14.56704956 -2.68139648 12.71435547 C-3.57852463 8.81578651 -4.15259351 5.09712631 -4.51000977 1.11352539 C-3.51000977 0.11352539 -3.51000977 0.11352539 0 0 Z " fill="#FCFCFC" transform="translate(377.510009765625,955.886474609375)"/>
<path d="M0 0 C64.35 0 128.7 0 195 0 C200.38611779 31.23948317 200.38611779 31.23948317 202.2421875 45.5546875 C203.20240612 52.72590696 204.45589956 59.85073064 205.73071289 66.97192383 C205.89563232 67.9183374 206.06055176 68.86475098 206.23046875 69.83984375 C206.37895264 70.66863037 206.52743652 71.49741699 206.68041992 72.35131836 C207.06589502 75.54613829 207 78.7820091 207 82 C143.64 82 80.28 82 15 82 C0 5.5 0 5.5 0 0 Z " fill="#FEFEFE" transform="translate(282,827)"/>
<path d="M0 0 C59.73 0 119.46 0 181 0 C178.70612861 14.91016401 178.70612861 14.91016401 177.23046875 22.2890625 C177.06908417 23.10869476 176.90769958 23.92832703 176.74142456 24.77279663 C176.22573476 27.3906547 175.70663932 30.00782406 175.1875 32.625 C174.46942572 36.26264276 173.7536178 39.90072694 173.0390625 43.5390625 C172.86337234 44.43320862 172.68768219 45.32735474 172.50666809 46.24859619 C170.73813243 55.2810951 169.0696213 64.33091461 167.4597168 73.39306641 C167.27836182 74.39772949 167.09700684 75.40239258 166.91015625 76.4375 C166.75683838 77.30246094 166.60352051 78.16742187 166.44555664 79.05859375 C166 81 166 81 165 82 C162.73442613 82.09707611 160.46575698 82.12186621 158.19810486 82.12025452 C157.1187654 82.12153615 157.1187654 82.12153615 156.0176211 82.12284368 C153.5884642 82.1245006 151.15937523 82.11897368 148.73022461 82.11352539 C146.99610903 82.11324354 145.26199332 82.11340121 143.52787781 82.1139679 C138.80493679 82.11425595 134.08202094 82.10835799 129.3590858 82.10139394 C124.4289721 82.09516166 119.49885788 82.0945567 114.56874084 82.09336853 C105.22603638 82.09025484 95.88334356 82.08204095 86.54064423 82.07201904 C75.90720945 82.06085907 65.27377413 82.05534775 54.64033496 82.05032361 C32.7602168 82.03985836 10.88010913 82.02225819 -11 82 C-10.84489084 80.08921686 -10.68859985 78.17852964 -10.53181458 76.2678833 C-10.44490766 75.20385914 -10.35800074 74.13983498 -10.26846027 73.04356766 C-9.93581406 69.27231598 -9.46793487 65.5473398 -8.94921875 61.796875 C-8.85040909 61.07923981 -8.75159943 60.36160461 -8.64979553 59.6222229 C-8.33277743 57.33094193 -8.01047724 55.04044793 -7.6875 52.75 C-7.57772827 51.96296692 -7.46795654 51.17593384 -7.3548584 50.36505127 C-5.82563037 39.40872912 -4.18328542 28.47969362 -2.2565918 17.58496094 C-1.22505635 11.69704643 -0.5985827 5.98582703 0 0 Z " fill="#FEFEFE" transform="translate(1034,827)"/>
<path d="M0 0 C1.64970291 -0.01441132 1.64970291 -0.01441132 3.33273315 -0.02911377 C4.53664703 -0.03336365 5.74056091 -0.03761353 6.98095703 -0.04199219 C8.84229782 -0.0505423 8.84229782 -0.0505423 10.74124146 -0.05926514 C13.38612525 -0.06874434 16.03089493 -0.07562318 18.67578125 -0.07910156 C22.65918536 -0.08555068 26.64220602 -0.11961603 30.62548828 -0.15136719 C52.79406038 -0.24606525 52.79406038 -0.24606525 63.77001953 1.45800781 C64.8598262 1.6268045 64.8598262 1.6268045 65.97164917 1.79901123 C72.89459344 3.05799066 79.24320862 5.91191151 84.86376953 10.16113281 C85.35876953 11.64613281 85.35876953 11.64613281 85.86376953 13.16113281 C86.85376953 13.49113281 87.84376953 13.82113281 88.86376953 14.16113281 C90.21533203 15.90332031 90.21533203 15.90332031 91.48876953 18.03613281 C91.91416016 18.73480469 92.33955078 19.43347656 92.77783203 20.15332031 C96.63028091 27.27619342 96.09343498 38.55850653 94.02783203 46.29003906 C90.57756852 53.6884229 84.31507253 60.65463729 76.86376953 64.16113281 C76.20376953 64.16113281 75.54376953 64.16113281 74.86376953 64.16113281 C74.86376953 64.82113281 74.86376953 65.48113281 74.86376953 66.16113281 C75.58693359 66.27199219 76.31009766 66.38285156 77.05517578 66.49707031 C84.84356839 68.33855396 91.45420286 73.59516363 95.86376953 80.16113281 C101.59594651 89.65332298 102.06772824 99.5853684 99.67626953 110.28613281 C98.22756747 115.60942954 96.1353699 119.75068421 92.86376953 124.16113281 C92.30689453 125.00675781 91.75001953 125.85238281 91.17626953 126.72363281 C81.62882609 136.78715428 68.21136271 141.5927013 54.5430603 142.34355164 C50.74152392 142.40776295 46.94286793 142.41325982 43.14111328 142.39160156 C41.74532616 142.39040687 40.34953822 142.38995721 38.95375061 142.39021301 C36.05171563 142.38866051 33.14980618 142.38045893 30.24780273 142.36694336 C26.52194133 142.34981178 22.79621538 142.34613373 19.07031918 142.34688854 C16.19910889 142.3466175 13.3279284 142.3411492 10.45672798 142.3338871 C9.08155098 142.33070114 7.7063706 142.32873319 6.33119011 142.32799339 C4.42138327 142.32583716 2.51158896 142.3163107 0.60180664 142.30639648 C-0.48499893 142.30258469 -1.5718045 142.29877289 -2.69154358 142.29484558 C-5.13623047 142.16113281 -5.13623047 142.16113281 -6.13623047 141.16113281 C-6.23482742 139.35383635 -6.2625517 137.54264983 -6.26321411 135.73266602 C-6.26744385 133.96579941 -6.26744385 133.96579941 -6.27175903 132.16323853 C-6.2697348 130.85930145 -6.26771057 129.55536438 -6.265625 128.21191406 C-6.26697902 126.8340958 -6.26875896 125.4562779 -6.27093506 124.07846069 C-6.27550931 120.32649734 -6.27371987 116.57456136 -6.27055597 112.8225975 C-6.26803233 108.90459873 -6.27036992 104.98660238 -6.27194214 101.06860352 C-6.27376382 94.48778867 -6.27135756 87.90698502 -6.26660156 81.32617188 C-6.26115894 73.70707838 -6.2629216 66.08801164 -6.26842797 58.4689188 C-6.27295913 51.93899843 -6.27360963 45.40908613 -6.2709893 38.8791647 C-6.26942654 34.97401427 -6.26923272 31.06887644 -6.27252579 27.16372681 C-6.27540455 23.49318813 -6.27342872 19.82268411 -6.26763153 16.1521492 C-6.26566833 14.15444232 -6.2686578 12.15673253 -6.27175903 10.1590271 C-6.26893921 8.98111603 -6.26611938 7.80320496 -6.26321411 6.58959961 C-6.26283709 5.55941208 -6.26246006 4.52922455 -6.26207161 3.46781921 C-6.02768274 -0.82856277 -3.77436654 0.02654558 0 0 Z " fill="#FDFDFD" transform="translate(1011.13623046875,955.8388671875)"/>
<path d="M0 0 C1.12836525 0.00303635 1.12836525 0.00303635 2.27952576 0.00613403 C3.06810471 0.00438171 3.85668365 0.00262939 4.66915894 0.00082397 C7.28865223 -0.00359502 9.90807859 -0.00065639 12.52757263 0.00271606 C14.33978793 0.00204304 16.15200315 0.00107303 17.96421814 -0.00018311 C21.76740883 -0.00166014 25.57057607 0.00049466 29.37376404 0.00515747 C34.26010758 0.01085476 39.14639621 0.00757579 44.03273773 0.00158501 C47.77637652 -0.00202045 51.52000219 -0.00088209 55.26364136 0.0017128 C57.065857 0.00238211 58.86807381 0.0015535 60.67028809 -0.00076675 C63.18459754 -0.00329303 65.6988168 0.00054694 68.21311951 0.00613403 C68.96536301 0.0041098 69.71760651 0.00208557 70.49264526 0 C75.63206004 0.02126597 75.63206004 0.02126597 76.74632263 1.13552856 C76.84615321 3.12309884 76.87713016 5.11420376 76.87913513 7.10427856 C76.88042419 8.31470825 76.88171326 9.52513794 76.88304138 10.77224731 C76.87917419 12.04713013 76.87530701 13.32201294 76.87132263 14.63552856 C76.87518982 15.91041138 76.87905701 17.18529419 76.88304138 18.49880981 C76.88175232 19.7092395 76.88046326 20.91966919 76.87913513 22.16677856 C76.8780072 23.28632935 76.87687927 24.40588013 76.87571716 25.55935669 C76.74632263 28.13552856 76.74632263 28.13552856 75.74632263 29.13552856 C74.24213524 29.22864746 72.73360907 29.25298884 71.22654724 29.24905396 C69.7851664 29.24894066 69.7851664 29.24894066 68.31466675 29.24882507 C67.26988663 29.24366379 66.22510651 29.2385025 65.14866638 29.23318481 C64.08467117 29.23176987 63.02067596 29.23035492 61.92443848 29.22889709 C58.5108718 29.2232792 55.09736964 29.21072367 51.68382263 29.19802856 C49.37588087 29.19301587 47.06793808 29.18845256 44.75999451 29.18435669 C39.08872542 29.17415289 33.41759663 29.154581 27.74632263 29.13552856 C27.74632263 38.04552856 27.74632263 46.95552856 27.74632263 56.13552856 C30.98315857 56.123927 34.21999451 56.11232544 37.55491638 56.10037231 C40.67576499 56.09258269 43.79661254 56.08650539 46.91746521 56.08059692 C49.09325136 56.07555549 51.2690341 56.06872249 53.44480896 56.06008911 C56.5648533 56.04801519 59.68485302 56.04229852 62.80491638 56.03787231 C63.78407516 56.03271103 64.76323395 56.02754974 65.77206421 56.02223206 C66.67292252 56.02215652 67.57378082 56.02208099 68.50193787 56.02200317 C69.29913742 56.01978256 70.09633698 56.01756195 70.91769409 56.01527405 C72.74632263 56.13552856 72.74632263 56.13552856 73.74632263 57.13552856 C73.83390266 59.13517839 73.85328839 61.13788966 73.84397888 63.13943481 C73.8391449 64.96184692 73.8391449 64.96184692 73.83421326 66.82107544 C73.8216449 68.74016724 73.8216449 68.74016724 73.80882263 70.69802856 C73.80431091 71.98129028 73.79979919 73.264552 73.79515076 74.58670044 C73.78331809 77.76968879 73.76683331 80.95258619 73.74632263 84.13552856 C71.41622284 85.30057846 70.07385186 85.25646436 67.48020935 85.24905396 C66.15906631 85.24894066 66.15906631 85.24894066 64.81123352 85.24882507 C63.8591098 85.24366379 62.90698608 85.2385025 61.92601013 85.23318481 C60.95221405 85.23176987 59.97841797 85.23035492 58.97511292 85.22889709 C55.8571519 85.2232883 52.73926204 85.2107343 49.62132263 85.19802856 C47.51064658 85.1930147 45.39996941 85.18845159 43.28929138 85.18435669 C38.10825216 85.17416582 32.92736728 85.1545921 27.74632263 85.13552856 C27.74632263 94.37552856 27.74632263 103.61552856 27.74632263 113.13552856 C31.41628357 113.123927 35.08624451 113.11232544 38.86741638 113.10037231 C42.4052573 113.09258304 45.94309728 113.08650554 49.48094177 113.08059692 C51.94774297 113.075555 54.41454116 113.06872166 56.8813324 113.06008911 C60.41836792 113.04801732 63.95536409 113.04229901 67.49241638 113.03787231 C68.60281784 113.03271103 69.7132193 113.02754974 70.85726929 113.02223206 C72.38874352 113.02211876 72.38874352 113.02211876 73.95115662 113.02200317 C74.85494553 113.01978256 75.75873444 113.01756195 76.68991089 113.01527405 C78.74632263 113.13552856 78.74632263 113.13552856 79.74632263 114.13552856 C79.84615321 116.12309884 79.87713016 118.11420376 79.87913513 120.10427856 C79.88042419 121.31470825 79.88171326 122.52513794 79.88304138 123.77224731 C79.87917419 125.04713013 79.87530701 126.32201294 79.87132263 127.63552856 C79.87518982 128.91041138 79.87905701 130.18529419 79.88304138 131.49880981 C79.88175232 132.7092395 79.88046326 133.91966919 79.87913513 135.16677856 C79.8780072 136.28632935 79.87687927 137.40588013 79.87571716 138.55935669 C79.74632263 141.13552856 79.74632263 141.13552856 78.74632263 142.13552856 C76.13481975 142.23594314 73.54973899 142.27169913 70.93772888 142.2649231 C69.71096939 142.26755157 69.71096939 142.26755157 68.45942688 142.27023315 C65.74253753 142.27465241 63.0257127 142.27171343 60.30882263 142.26834106 C58.42934659 142.26901408 56.54987064 142.26998409 54.6703949 142.27124023 C50.72596917 142.27271731 46.78156605 142.27056235 42.83714294 142.26589966 C37.7691976 142.26020237 32.70130521 142.26348132 27.63336182 142.26947212 C23.75075376 142.27307748 19.86815835 142.27193927 15.98554993 142.26934433 C14.1163482 142.26867499 12.24714535 142.26950372 10.37794495 142.27182388 C7.77023759 142.27435 5.16261722 142.27051041 2.55491638 142.2649231 C1.77462067 142.26694733 0.99432495 142.26897156 0.19038391 142.27105713 C-5.13941483 142.2497911 -5.13941483 142.2497911 -6.25367737 141.13552856 C-6.35227432 139.32823211 -6.3799986 137.51704558 -6.38066101 135.70706177 C-6.38489075 133.94019516 -6.38489075 133.94019516 -6.38920593 132.13763428 C-6.3871817 130.8336972 -6.38515747 129.52976013 -6.3830719 128.18630981 C-6.38442592 126.80849155 -6.38620586 125.43067365 -6.38838196 124.05285645 C-6.39295621 120.30089309 -6.39116677 116.54895711 -6.38800287 112.79699326 C-6.38547923 108.87899448 -6.38781682 104.96099813 -6.38938904 101.04299927 C-6.39121072 94.46218442 -6.38880446 87.88138078 -6.38404846 81.30056763 C-6.37860584 73.68147413 -6.3803685 66.0624074 -6.38587487 58.44331455 C-6.39040603 51.91339418 -6.39105653 45.38348188 -6.3884362 38.85356045 C-6.38687344 34.94841002 -6.38667962 31.04327219 -6.38997269 27.13812256 C-6.39285145 23.46758389 -6.39087561 19.79707986 -6.38507843 16.12654495 C-6.38311523 14.12883808 -6.3861047 12.13112829 -6.38920593 10.13342285 C-6.38638611 8.95551178 -6.38356628 7.77760071 -6.38066101 6.56399536 C-6.38028399 5.53380783 -6.37990696 4.5036203 -6.37951851 3.44221497 C-6.14149542 -0.92078286 -3.80717969 0.01575342 0 0 Z " fill="#FDFDFD" transform="translate(661.2536773681641,955.8644714355469)"/>
<path d="M0 0 C1.12836525 0.00303635 1.12836525 0.00303635 2.27952576 0.00613403 C3.06810471 0.00438171 3.85668365 0.00262939 4.66915894 0.00082397 C7.28865223 -0.00359502 9.90807859 -0.00065639 12.52757263 0.00271606 C14.33978793 0.00204304 16.15200315 0.00107303 17.96421814 -0.00018311 C21.76740883 -0.00166014 25.57057607 0.00049466 29.37376404 0.00515747 C34.26010758 0.01085476 39.14639621 0.00757579 44.03273773 0.00158501 C47.77637652 -0.00202045 51.52000219 -0.00088209 55.26364136 0.0017128 C57.065857 0.00238211 58.86807381 0.0015535 60.67028809 -0.00076675 C63.18459754 -0.00329303 65.6988168 0.00054694 68.21311951 0.00613403 C68.96536301 0.0041098 69.71760651 0.00208557 70.49264526 0 C75.63206004 0.02126597 75.63206004 0.02126597 76.74632263 1.13552856 C76.84615321 3.12309884 76.87713016 5.11420376 76.87913513 7.10427856 C76.88042419 8.31470825 76.88171326 9.52513794 76.88304138 10.77224731 C76.87917419 12.04713013 76.87530701 13.32201294 76.87132263 14.63552856 C76.87518982 15.91041138 76.87905701 17.18529419 76.88304138 18.49880981 C76.88175232 19.7092395 76.88046326 20.91966919 76.87913513 22.16677856 C76.8780072 23.28632935 76.87687927 24.40588013 76.87571716 25.55935669 C76.74632263 28.13552856 76.74632263 28.13552856 75.74632263 29.13552856 C74.24213524 29.22864746 72.73360907 29.25298884 71.22654724 29.24905396 C69.7851664 29.24894066 69.7851664 29.24894066 68.31466675 29.24882507 C67.26988663 29.24366379 66.22510651 29.2385025 65.14866638 29.23318481 C64.08467117 29.23176987 63.02067596 29.23035492 61.92443848 29.22889709 C58.5108718 29.2232792 55.09736964 29.21072367 51.68382263 29.19802856 C49.37588087 29.19301587 47.06793808 29.18845256 44.75999451 29.18435669 C39.08872542 29.17415289 33.41759663 29.154581 27.74632263 29.13552856 C27.74632263 38.04552856 27.74632263 46.95552856 27.74632263 56.13552856 C32.47589294 56.10072388 32.47589294 56.10072388 37.30101013 56.06521606 C40.34576515 56.04963057 43.39051577 56.03747955 46.43528748 56.02566528 C48.55575033 56.01559105 50.67619924 56.00193123 52.7966156 55.98464966 C55.83978206 55.96046367 58.8827653 55.94905987 61.92601013 55.94021606 C62.87813385 55.92989349 63.83025757 55.91957092 64.81123352 55.90893555 C65.69199554 55.90878448 66.57275757 55.90863342 67.48020935 55.90847778 C68.2574234 55.90403656 69.03463745 55.89959534 69.83540344 55.89501953 C71.74632263 56.13552856 71.74632263 56.13552856 73.74632263 58.13552856 C73.98924255 60.73342896 73.98924255 60.73342896 73.97679138 63.98318481 C73.97485779 65.14527466 73.97292419 66.3073645 73.97093201 67.50466919 C73.95868591 68.72347778 73.94643982 69.94228638 73.93382263 71.19802856 C73.93285583 73.03204224 73.93285583 73.03204224 73.93186951 74.90310669 C73.88643319 83.995418 73.88643319 83.995418 72.74632263 85.13552856 C71.33407218 85.22840117 69.91723329 85.25299628 68.50193787 85.24905396 C67.15065041 85.24894066 67.15065041 85.24894066 65.77206421 85.24882507 C64.79290543 85.24366379 63.81374664 85.2385025 62.80491638 85.23318481 C61.80750931 85.23176987 60.81010223 85.23035492 59.7824707 85.22889709 C56.5828914 85.22327971 53.38338095 85.21072427 50.18382263 85.19802856 C48.02041218 85.1930158 45.85700064 85.18845251 43.69358826 85.18435669 C38.37778489 85.17415361 33.06213124 85.15458164 27.74632263 85.13552856 C27.74632263 94.37552856 27.74632263 103.61552856 27.74632263 113.13552856 C31.41628357 113.123927 35.08624451 113.11232544 38.86741638 113.10037231 C42.4052573 113.09258304 45.94309728 113.08650554 49.48094177 113.08059692 C51.94774297 113.075555 54.41454116 113.06872166 56.8813324 113.06008911 C60.41836792 113.04801732 63.95536409 113.04229901 67.49241638 113.03787231 C68.60281784 113.03271103 69.7132193 113.02754974 70.85726929 113.02223206 C72.38874352 113.02211876 72.38874352 113.02211876 73.95115662 113.02200317 C74.85494553 113.01978256 75.75873444 113.01756195 76.68991089 113.01527405 C78.74632263 113.13552856 78.74632263 113.13552856 79.74632263 114.13552856 C79.84615321 116.12309884 79.87713016 118.11420376 79.87913513 120.10427856 C79.88042419 121.31470825 79.88171326 122.52513794 79.88304138 123.77224731 C79.87917419 125.04713013 79.87530701 126.32201294 79.87132263 127.63552856 C79.87518982 128.91041138 79.87905701 130.18529419 79.88304138 131.49880981 C79.88175232 132.7092395 79.88046326 133.91966919 79.87913513 135.16677856 C79.8780072 136.28632935 79.87687927 137.40588013 79.87571716 138.55935669 C79.74632263 141.13552856 79.74632263 141.13552856 78.74632263 142.13552856 C76.13481975 142.23594314 73.54973899 142.27169913 70.93772888 142.2649231 C69.71096939 142.26755157 69.71096939 142.26755157 68.45942688 142.27023315 C65.74253753 142.27465241 63.0257127 142.27171343 60.30882263 142.26834106 C58.42934659 142.26901408 56.54987064 142.26998409 54.6703949 142.27124023 C50.72596917 142.27271731 46.78156605 142.27056235 42.83714294 142.26589966 C37.7691976 142.26020237 32.70130521 142.26348132 27.63336182 142.26947212 C23.75075376 142.27307748 19.86815835 142.27193927 15.98554993 142.26934433 C14.1163482 142.26867499 12.24714535 142.26950372 10.37794495 142.27182388 C7.77023759 142.27435 5.16261722 142.27051041 2.55491638 142.2649231 C1.77462067 142.26694733 0.99432495 142.26897156 0.19038391 142.27105713 C-5.13941483 142.2497911 -5.13941483 142.2497911 -6.25367737 141.13552856 C-6.35227432 139.32823211 -6.3799986 137.51704558 -6.38066101 135.70706177 C-6.38489075 133.94019516 -6.38489075 133.94019516 -6.38920593 132.13763428 C-6.3871817 130.8336972 -6.38515747 129.52976013 -6.3830719 128.18630981 C-6.38442592 126.80849155 -6.38620586 125.43067365 -6.38838196 124.05285645 C-6.39295621 120.30089309 -6.39116677 116.54895711 -6.38800287 112.79699326 C-6.38547923 108.87899448 -6.38781682 104.96099813 -6.38938904 101.04299927 C-6.39121072 94.46218442 -6.38880446 87.88138078 -6.38404846 81.30056763 C-6.37860584 73.68147413 -6.3803685 66.0624074 -6.38587487 58.44331455 C-6.39040603 51.91339418 -6.39105653 45.38348188 -6.3884362 38.85356045 C-6.38687344 34.94841002 -6.38667962 31.04327219 -6.38997269 27.13812256 C-6.39285145 23.46758389 -6.39087561 19.79707986 -6.38507843 16.12654495 C-6.38311523 14.12883808 -6.3861047 12.13112829 -6.38920593 10.13342285 C-6.38638611 8.95551178 -6.38356628 7.77760071 -6.38066101 6.56399536 C-6.38028399 5.53380783 -6.37990696 4.5036203 -6.37951851 3.44221497 C-6.14149542 -0.92078286 -3.80717969 0.01575342 0 0 Z " fill="#FEFEFE" transform="translate(836.2536773681641,955.8644714355469)"/>
<path d="M0 0 C5.4140625 -0.12375 5.4140625 -0.12375 10.9375 -0.25 C12.05632568 -0.28641602 13.17515137 -0.32283203 14.32788086 -0.36035156 C21.11881945 -0.43478596 26.06500456 0.6718249 32 4 C32 4.66 32 5.32 32 6 C32.66 6 33.32 6 34 6 C36.82103286 10.80704 36.59907522 15.57679276 36 21 C33.92279933 26.09858345 30.41987698 28.78667198 25.546875 31.09765625 C17.28713436 33.19897793 8.41898469 32.25358388 0 32 C0 21.44 0 10.88 0 0 Z " fill="#050505" transform="translate(1039,1039)"/>
<path d="M0 0 C21.16142365 -0.5380023 21.16142365 -0.5380023 27.71484375 4.25390625 C30.31561507 6.89790369 31.32072833 9.39388143 31.5 13 C31.13968214 18.10288003 29.3727091 21.6272909 25.75 25.25 C19.98315815 28.91980845 14.17706791 29.28109192 7.5625 29.125 C5.066875 29.08375 2.57125 29.0425 0 29 C0 19.43 0 9.86 0 0 Z " fill="#080808" transform="translate(1039,983)"/>
<path d="" fill="#FFFFFF" transform="translate(0,0)"/>
</svg>
